<svg width="300" height="300" viewBox="0 0 300 300" fill="none" xmlns="http://www.w3.org/2000/svg">
<path d="M147.672 268.344C214.317 268.344 268.343 214.317 268.343 147.672C268.343 81.0266 214.317 27 147.672 27C81.0269 27 27 81.0266 27 147.672C27 214.317 81.0269 268.344 147.672 268.344Z" stroke="#44454C" stroke-miterlimit="10"/>
<path d="M100.25 41.5005C102.597 41.5005 104.5 39.5975 104.5 37.2501C104.5 34.9026 102.597 33 100.25 33C97.903 33 96 34.9026 96 37.2501C96 39.5975 97.903 41.5005 100.25 41.5005Z" fill="#8CC7F2"/>
<path d="M262.249 112.5C264.598 112.5 266.502 110.598 266.502 108.25C266.502 105.903 264.598 104 262.249 104C259.904 104 258 105.903 258 108.25C258 110.598 259.904 112.5 262.249 112.5Z" fill="#009EF7"/>
<path d="M219.25 248.5C221.598 248.5 223.5 246.598 223.5 244.25C223.5 241.903 221.598 240 219.25 240C216.903 240 215 241.903 215 244.25C215 246.598 216.903 248.5 219.25 248.5Z" fill="#0193E5"/>
<path d="M150.467 238.484C200.183 238.484 240.485 198.182 240.485 148.467C240.485 98.7506 200.183 58.4482 150.467 58.4482C100.752 58.4482 60.4492 98.7506 60.4492 148.467C60.4492 198.182 100.752 238.484 150.467 238.484Z" stroke="#44454C" stroke-miterlimit="10"/>
<path d="M238.171 131.341C239.922 131.341 241.341 129.922 241.341 128.171C241.341 126.419 239.922 125 238.171 125C236.419 125 235 126.419 235 128.171C235 129.922 236.419 131.341 238.171 131.341Z" fill="#FEBB94"/>
<path d="M61.1704 139.341C62.9216 139.341 64.3411 137.922 64.3411 136.17C64.3411 134.42 62.9216 133 61.1704 133C59.4195 133 58 134.42 58 136.17C58 137.922 59.4195 139.341 61.1704 139.341Z" fill="#FEBB94"/>
<path d="M176.17 65.3411C177.922 65.3411 179.341 63.9216 179.341 62.1704C179.341 60.4195 177.922 59 176.17 59C174.42 59 173 60.4195 173 62.1704C173 63.9216 174.42 65.3411 176.17 65.3411Z" fill="#1C85E8"/>
<path d="M100.739 173.973H79.3545C80.1332 171.759 81.58 169.841 83.4953 168.485C85.4105 167.128 87.6997 166.399 90.0467 166.399C92.3938 166.399 94.683 167.128 96.5982 168.485C98.5135 169.841 99.9603 171.759 100.739 173.973Z" fill="#68E1FD"/>
<path d="M78.3756 133.366C78.0868 132.519 77.1659 132.066 76.3189 132.355C75.4718 132.644 75.0193 133.565 75.3082 134.412L86.8145 168.153C87.1034 169 88.0242 169.453 88.8713 169.164C89.7183 168.875 90.1708 167.954 89.882 167.107L78.3756 133.366Z" fill="#68E1FD"/>
<path d="M76.3715 132.306C75.5177 132.574 75.043 133.484 75.3112 134.338C75.5794 135.192 76.489 135.666 77.3428 135.398L111.354 124.714C112.208 124.445 112.682 123.536 112.414 122.682C112.146 121.828 111.236 121.354 110.382 121.622L76.3715 132.306Z" fill="#68E1FD"/>
<path d="M216.153 144.317H210.964C209.781 144.317 208.821 145.277 208.821 146.46V172.069C208.821 173.252 209.781 174.211 210.964 174.211H216.153C217.337 174.211 218.296 173.252 218.296 172.069V146.46C218.296 145.277 217.337 144.317 216.153 144.317Z" fill="#68E1FD"/>
<path d="M225.349 144.175L220.172 144.531C218.991 144.613 218.1 145.636 218.181 146.817L219.941 172.364C220.022 173.545 221.045 174.436 222.226 174.355L227.403 173.998C228.583 173.917 229.475 172.894 229.393 171.713L227.634 146.166C227.552 144.985 226.529 144.094 225.349 144.175Z" fill="#68E1FD"/>
<path d="M123.725 173.778C121.76 179.401 120.059 185.219 120.024 191.178C119.989 197.138 121.795 203.309 126.001 207.524C132.155 213.723 141.736 214.405 150.44 214.75L161.952 215.21C166.477 215.387 171.046 215.565 175.482 214.661C179.918 213.758 184.257 211.624 186.993 207.994C188.753 205.418 189.932 202.49 190.447 199.413C193.564 184.28 188.508 168.156 179.006 155.971C176.244 152.271 172.872 149.067 169.036 146.497C162.642 142.432 143.613 136.34 137.362 143.149C134.519 146.24 132.722 152.5 130.924 156.29C128.216 161.988 125.813 167.825 123.725 173.778Z" fill="white"/>
<path d="M129.631 170.553C128.037 175.104 126.665 179.806 126.638 184.632C126.611 189.458 128.073 194.443 131.473 197.852C136.449 202.837 144.206 203.413 151.237 203.696L160.561 204.068C164.211 204.357 167.883 204.206 171.497 203.617C175.083 202.882 178.581 201.164 180.777 198.224C182.207 196.146 183.162 193.779 183.575 191.291C186.099 179.044 182.008 166.01 174.322 156.155C172.088 153.158 169.36 150.565 166.255 148.486C161.083 145.201 145.694 140.278 140.638 145.777C138.344 148.283 136.883 153.348 135.44 156.402C133.253 161.012 131.314 165.736 129.631 170.553Z" fill="url(#paint0_linear_37_2029)"/>
<path d="M140.762 251.275C139.876 252.816 138.893 254.295 138.052 255.844C136.768 258.253 135.883 261.095 136.733 263.681C136.852 264.131 137.094 264.539 137.432 264.859C137.884 265.177 138.413 265.37 138.964 265.416C140.754 265.697 142.563 265.845 144.375 265.859C146.854 265.859 149.528 265.567 151.37 263.902C155.062 260.546 154.814 252.285 152.698 248.229C152.493 247.713 152.14 247.269 151.683 246.954C151.226 246.639 150.685 246.466 150.13 246.458C148.457 246.133 146.746 246.04 145.048 246.184C143.144 246.396 142.639 246.857 141.975 248.672C141.64 249.57 141.234 250.441 140.762 251.275Z" fill="#003857"/>
<path d="M145.624 251.63C146.068 251.71 146.518 251.754 146.97 251.763C148.351 251.825 149.918 251.816 150.901 250.833C151.884 249.851 151.902 248.407 151.902 247.07V241.881C151.902 238.454 148.697 238.924 146.182 239.349C145.597 239.418 145.038 239.628 144.552 239.96C143.667 240.659 143.57 241.934 143.534 243.05L143.357 248.513C143.279 249.168 143.377 249.831 143.64 250.435C143.859 250.771 144.152 251.053 144.495 251.26C144.839 251.467 145.224 251.594 145.624 251.63Z" fill="#FFCCB3"/>
<path d="M173.163 251.276C174.048 252.817 175.031 254.296 175.819 255.845C177.112 258.254 177.997 261.096 177.138 263.682C177.02 264.132 176.777 264.54 176.439 264.859C175.988 265.181 175.459 265.374 174.907 265.417C173.12 265.697 171.314 265.845 169.505 265.86C167.026 265.86 164.343 265.568 162.51 263.903C158.809 260.547 159.057 252.285 161.173 248.23C161.351 247.846 161.597 247.498 161.899 247.203C162.433 246.793 163.071 246.541 163.741 246.477C165.417 246.151 167.131 246.059 168.832 246.202C170.727 246.415 171.232 246.875 171.896 248.69C172.246 249.586 172.669 250.451 173.163 251.276Z" fill="#003857"/>
<path d="M168.301 251.63C167.856 251.709 167.406 251.754 166.955 251.763C165.564 251.825 164.006 251.816 163.023 250.833C162.04 249.851 162.014 248.407 162.014 247.07V241.881C162.014 238.454 165.228 238.924 167.734 239.349C168.321 239.416 168.884 239.626 169.372 239.96C170.258 240.659 170.346 241.934 170.382 243.05L170.559 248.513C170.639 249.167 170.545 249.83 170.284 250.435C170.065 250.771 169.773 251.053 169.429 251.26C169.086 251.467 168.7 251.594 168.301 251.63Z" fill="#FFCCB3"/>
<path d="M165.857 117.195C165.857 117.195 176.66 121.87 177.926 122.933C179.06 123.88 175.987 188.733 175.748 191.903C175.509 195.074 158.224 195.578 150.751 194.153C145.764 193.137 140.885 191.655 136.176 189.725C136.176 189.725 133.811 122.738 135.29 121.543C136.769 120.347 151.052 115.929 151.052 115.929L165.857 117.195Z" fill="#009EF7"/>
<path d="M130.323 197.181C129.517 200.138 129.03 203.468 130.571 206.107C131.597 207.723 133.133 208.95 134.936 209.595C136.728 210.227 138.594 210.623 140.488 210.773C152.091 212.097 163.834 211.459 175.226 208.887C176.815 208.67 178.307 207.997 179.52 206.948C180.527 205.718 181.111 204.197 181.185 202.609C181.86 196.982 180.695 191.288 177.864 186.378C177.668 185.976 177.361 185.638 176.979 185.404C176.612 185.242 176.21 185.175 175.81 185.209L146.332 185.306C144.192 185.36 142.051 185.28 139.921 185.067C138.266 184.873 136.379 183.819 135.193 185.236C132.669 188.193 131.314 193.497 130.323 197.181Z" fill="#003857"/>
<path d="M165.45 243.81L167.177 243.978C172.401 244.5 174.509 240.046 175.031 234.822C175.155 233.733 175.412 232.635 175.598 231.554L179.042 211.489L180.636 202.192C180.796 201.253 180.964 200.323 181.114 199.385C181.575 196.657 180.751 194.027 180.229 191.291C179.919 189.635 179.521 187.856 178.245 186.758C176.97 185.66 175.208 185.562 173.561 185.483C169.187 185.288 164.751 185.084 160.491 186.102C160.229 186.136 159.988 186.261 159.81 186.457C159.69 186.682 159.65 186.941 159.694 187.192C160.004 191.353 160.669 195.48 160.58 199.641L159.827 233.077C159.296 238.275 160.226 243.287 165.45 243.81Z" fill="#01639B"/>
<path d="M149.113 245.138L147.342 245.306C142.127 245.828 140.011 241.374 139.488 236.15L133.865 203.387C133.414 200.784 133.033 198.278 132.838 195.63C132.622 193.84 132.682 192.027 133.015 190.255C133.188 189.37 133.56 188.536 134.103 187.817C134.646 187.097 135.346 186.511 136.15 186.102C136.999 185.779 137.898 185.606 138.806 185.589C141.797 185.393 144.8 185.536 147.759 186.014C148.822 186.104 149.843 186.467 150.725 187.067C151.597 187.915 152.211 188.993 152.496 190.176C153.381 192.726 154.524 195.542 154.267 198.269C154.055 200.011 153.955 201.765 153.966 203.52L154.223 215.12L154.657 234.096C154.648 234.202 154.648 234.308 154.657 234.414C155.232 239.577 154.302 244.589 149.113 245.138Z" fill="#01639B"/>
<path d="M189.138 144.326C189.138 144.326 196.151 158.937 195.398 162.921C194.876 165.728 189.501 168.19 187.376 169.465C185.25 170.74 183.116 172.308 180.911 173.175C178.707 174.043 176.192 173.707 173.952 173.636L162.44 173.264C161.891 173.264 161.156 173.06 161.156 172.502C161.156 172.175 161.44 171.918 161.714 171.732C162.575 171.132 163.575 170.76 164.619 170.652C167.106 170.494 169.563 170.024 171.933 169.253L185.18 160.132L181.983 154.208L189.138 144.326Z" fill="#FFCCB3"/>
<path d="M135.919 121.224C133.617 122.224 132.04 123.606 131.491 125.97C130.606 129.627 128.791 132.691 127.064 136.011C126.034 138.027 125.146 140.113 124.408 142.254C124.121 142.904 124.017 143.621 124.106 144.326C124.26 144.859 124.519 145.356 124.868 145.787C126.916 148.644 129.047 151.439 131.261 154.173C132.597 153.554 133.875 152.816 135.078 151.968C135.547 151.224 135.361 149.435 135.432 148.567C135.562 146.797 135.68 145.005 135.786 143.193L135.919 121.224Z" fill="#009EF7"/>
<path d="M161.917 109.065C162.003 109.485 162.059 109.911 162.085 110.34C162.2 112.058 162.023 113.82 162.537 115.458C162.735 116.048 163.003 116.613 163.334 117.14C164.565 119.089 163.042 122.267 161.961 124.038C160.589 126.279 158.419 128.466 155.665 128.731C152.203 129.041 150.698 125.19 150.06 122.453C149.688 120.877 149.37 119.744 149.963 118.185C150.556 116.627 151.477 115.139 151.946 113.492C152.34 111.594 152.566 109.665 152.619 107.728C152.643 107.212 152.779 106.707 153.018 106.249C153.22 105.949 153.482 105.694 153.786 105.5C154.091 105.305 154.432 105.174 154.789 105.116C155.488 104.993 156.2 104.972 156.905 105.054C157.995 105.051 159.069 105.319 160.031 105.833C160.544 106.22 160.974 106.705 161.298 107.26C161.622 107.814 161.832 108.428 161.917 109.065Z" fill="#FFCCB3"/>
<path d="M152.309 111.979C152.309 111.979 153.717 120.789 157.462 119.204C161.208 117.619 162.12 112.563 162.12 112.563L152.309 111.979Z" fill="#FFB190"/>
<path d="M163.44 117.079C163.44 117.079 160.129 127.28 156.64 128.644C156.64 128.644 155.71 129.255 158.455 130.583C161.2 131.911 167.788 123.437 166.23 117.805C166.053 117.085 165.694 116.422 165.187 115.881C164.679 115.34 164.041 114.938 163.334 114.715L163.44 117.079Z" fill="white"/>
<path d="M150.325 116.089C150.325 116.089 149.821 123.421 153.186 128.14C153.186 128.14 152.114 130.106 151.069 130.204C150.024 130.301 146.863 124.28 147.527 119.498C147.837 116.744 149.732 115.398 150.325 116.089Z" fill="white"/>
<path d="M147.412 92.3208C147.412 92.3208 147.589 105.948 148.961 109.499C150.334 113.05 153.743 115.901 156.86 115.618C159.977 115.335 164.44 112.306 166.105 107.436C167.769 102.566 167.769 91.0103 167.105 89.4961C166.441 87.9819 162.864 83.342 154.611 84.8473C148.935 85.8833 147.226 90.2399 147.412 92.3208Z" fill="#FFCCB3"/>
<path d="M189.402 137.26C190.553 138.889 191.368 140.067 191.563 140.341C191.862 140.714 192.088 141.141 192.227 141.598C192.278 142.018 192.243 142.444 192.123 142.849C192.002 143.254 191.8 143.63 191.527 143.954C190.296 145.725 188.481 146.929 186.896 148.381C185.112 150.147 183.513 152.09 182.123 154.181C181.048 153.413 180.068 152.522 179.201 151.525C178.371 150.895 177.72 150.058 177.316 149.097C176.912 148.137 176.768 147.086 176.899 146.052L176.74 134.63L176.651 128.918C176.651 127.935 175.385 123.49 175.996 122.72C177.448 120.905 185.417 131.699 189.402 137.26Z" fill="#009EF7"/>
<path d="M145.686 97.3678C145.585 97.337 145.477 97.337 145.376 97.3678C145.278 97.4313 145.198 97.52 145.146 97.6246C144.786 98.2645 144.664 99.0108 144.801 99.7321C144.95 100.326 145.176 100.897 145.474 101.432C145.776 102.301 146.316 103.068 147.032 103.646C147.176 103.749 147.352 103.796 147.528 103.779C147.656 103.756 147.774 103.694 147.864 103.602C148.324 103.059 148.564 102.364 148.537 101.654C148.729 100.661 148.546 99.6326 148.024 98.7669C147.762 98.3755 147.416 98.047 147.012 97.8051C146.608 97.5631 146.155 97.4138 145.686 97.3678Z" fill="#FFCCB3"/>
<path d="M168.912 97.1493C169.014 97.1273 169.12 97.1273 169.222 97.1493C169.318 97.2149 169.398 97.3031 169.452 97.4061C169.808 98.0508 169.93 98.7983 169.798 99.5224C169.637 100.112 169.412 100.683 169.125 101.223C168.821 102.088 168.281 102.852 167.566 103.427C167.421 103.534 167.241 103.585 167.061 103.569C166.938 103.541 166.825 103.48 166.734 103.392C166.276 102.848 166.036 102.154 166.061 101.444C165.863 100.451 166.047 99.4208 166.574 98.5573C166.836 98.1642 167.181 97.834 167.585 97.5905C167.989 97.347 168.442 97.1963 168.912 97.1493Z" fill="#FFCCB3"/>
<path d="M145.075 91.0629C144.791 89.2919 144.729 87.2464 145.96 85.9448C146.217 85.6702 146.527 85.4489 146.792 85.1832C147.058 84.9176 147.465 84.3774 147.811 83.9701C148.841 82.8553 150.093 81.9695 151.488 81.37C152.882 80.7705 154.386 80.4707 155.904 80.4901C158.932 80.551 161.926 81.129 164.759 82.1991C166.353 82.7186 167.935 83.2824 169.505 83.8904C170.115 84.0826 170.679 84.3992 171.161 84.8202C171.502 85.1977 171.732 85.6625 171.824 86.1629C171.916 86.6633 171.867 87.1794 171.683 87.6537C171.418 88.4064 170.869 89.044 170.647 89.8055C170.515 90.4069 170.461 91.0231 170.488 91.6384C170.432 93.2754 170.002 94.8778 169.231 96.3227C168.805 97.2422 168.094 97.9999 167.203 98.4832C167.273 96.2709 166.974 94.0623 166.317 91.9484C164.44 93.4623 162.157 94.3866 159.756 94.6048C157.365 94.8104 154.956 94.5365 152.672 93.799C152.115 93.5587 151.499 93.4849 150.901 93.5865C150.325 93.7459 149.865 94.472 150.193 94.9502C150.08 94.8785 149.954 94.83 149.823 94.8072C149.691 94.7845 149.557 94.788 149.427 94.8177C149.297 94.8473 149.174 94.9025 149.065 94.9799C148.956 95.0574 148.864 95.1556 148.794 95.2689C148.535 95.7432 148.409 96.2787 148.431 96.8185L148.28 100.201C146.252 97.8191 145.57 94.1532 145.075 91.0629Z" fill="#E56441"/>
<path d="M124.089 144.326C122.637 147.346 121.3 150.436 120.113 153.571C119.224 155.745 118.519 157.99 118.006 160.283C117.82 161.168 117.386 162.381 117.714 163.276C118.218 164.648 120.299 165.72 121.468 166.428C125.193 168.71 129.072 170.731 133.077 172.476C134.629 173.219 136.273 173.755 137.965 174.07C139.292 174.232 140.632 174.271 141.967 174.185L149.653 173.919C150.353 173.919 151.265 173.68 151.327 172.981C151.327 172.494 150.91 172.095 150.494 171.838C149.123 170.971 147.631 170.311 146.067 169.881C144.535 169.465 142.64 169.749 141.197 169.235C139.567 168.659 137.752 166.835 136.309 165.835L128.047 160.132L131.244 154.208L124.089 144.326Z" fill="#FFCCB3"/>
<path d="M177.537 170.854H134.458L130.677 141.828L180.592 142.519L177.537 170.854Z" fill="url(#paint1_linear_37_2029)"/>
<path d="M177.538 170.847H134.246V174.008H177.538V170.847Z" fill="#D8E5FF"/>
<path d="M132.608 140.395L130.722 141.829L180.637 142.52L178.919 140.837L132.608 140.395Z" fill="#CAD6EE"/>
<path d="M161.377 102.225C161.404 101.367 160.971 100.657 160.409 100.639C159.847 100.621 159.369 101.302 159.341 102.16C159.314 103.018 159.747 103.728 160.309 103.746C160.871 103.765 161.349 103.084 161.377 102.225Z" fill="#080B09"/>
<path d="M153.633 101.927C153.66 101.068 153.227 100.358 152.665 100.34C152.103 100.322 151.624 101.003 151.597 101.861C151.569 102.719 152.003 103.43 152.565 103.448C153.127 103.466 153.605 102.785 153.633 101.927Z" fill="#080B09"/>
<path d="M155.507 103.846C155.507 103.846 156.759 105.453 155.43 105.727C154.152 105.945 153.547 106.83 155.034 107.676" stroke="#E56441" stroke-width="0.39113" stroke-linecap="round"/>
<path d="M154.536 109.296L154.542 109.296L154.549 109.295C155.35 109.206 156.95 109.027 158.016 108.926L158.018 108.926C158.047 108.923 158.076 108.927 158.102 108.94C158.129 108.952 158.151 108.972 158.167 108.996C158.183 109.02 158.193 109.049 158.194 109.077C158.195 109.105 158.188 109.133 158.176 109.157C157.992 109.454 157.744 109.812 157.456 110.134C157.164 110.461 156.84 110.739 156.507 110.886C156.182 111.031 155.855 111.05 155.527 110.874C155.187 110.691 154.818 110.285 154.456 109.515L154.449 109.5L154.441 109.487C154.428 109.47 154.421 109.449 154.419 109.427C154.418 109.405 154.422 109.383 154.432 109.364C154.442 109.344 154.456 109.328 154.475 109.316C154.493 109.304 154.514 109.297 154.536 109.296Z" fill="#E56441" stroke="#E56441" stroke-width="0.386971"/>
<path d="M163.373 99.4657L163.303 99.6201C163.221 99.8538 163.05 100.046 162.826 100.154C162.603 100.262 162.346 100.277 162.111 100.197L158.118 98.7033C157.921 98.6391 157.756 98.5033 157.655 98.3233C157.554 98.143 157.524 97.9313 157.572 97.7305C157.595 97.6059 157.645 97.4879 157.717 97.3838C157.789 97.2801 157.883 97.1926 157.992 97.1276C158.101 97.0622 158.222 97.0212 158.347 97.0061C158.473 96.9914 158.601 97.0034 158.721 97.0417L162.786 98.3806C162.897 98.4116 163 98.4642 163.09 98.5362C163.18 98.6078 163.255 98.6971 163.31 98.7985C163.365 98.8995 163.399 99.011 163.409 99.1255C163.42 99.2401 163.408 99.3558 163.373 99.4657Z" fill="#080B09"/>
<path d="M149.803 97.5272L154.056 97.0551C154.182 97.0427 154.309 97.057 154.429 97.0977C154.549 97.1379 154.659 97.2033 154.752 97.2892C154.845 97.3755 154.919 97.4804 154.968 97.5969C155.017 97.7137 155.041 97.8395 155.039 97.966C155.044 98.1727 154.971 98.3735 154.835 98.5287C154.699 98.6842 154.51 98.7829 154.304 98.8054L150.088 99.4431C149.842 99.4737 149.593 99.4056 149.397 99.2539C149.201 99.1022 149.073 98.8789 149.041 98.6332L149.004 98.4675C148.993 98.353 149.005 98.2373 149.039 98.1274C149.073 98.0175 149.13 97.9153 149.204 97.8279C149.278 97.74 149.37 97.6681 149.473 97.6166C149.576 97.5647 149.688 97.5346 149.803 97.5272Z" fill="#080B09"/>
<path d="M239.981 176.762V178.675C239.982 179.042 239.911 179.405 239.771 179.745C239.631 180.084 239.426 180.393 239.167 180.653C238.908 180.913 238.6 181.119 238.261 181.26C237.922 181.4 237.559 181.473 237.192 181.473H73.7395C73.3725 181.473 73.009 181.4 72.67 181.26C72.331 181.119 72.0232 180.913 71.764 180.653C71.5049 180.393 71.2996 180.084 71.16 179.745C71.0203 179.405 70.949 179.042 70.9502 178.675V176.762C70.9502 176.022 71.2441 175.313 71.7672 174.79C72.2903 174.267 72.9997 173.973 73.7395 173.973H237.192C237.931 173.973 238.641 174.267 239.164 174.79C239.687 175.313 239.981 176.022 239.981 176.762Z" fill="#473F47"/>
<path d="M84.8272 173.973L83.5876 181.473L69.2781 269.579C69.2174 270.143 68.9688 270.671 68.5722 271.077C68.1755 271.484 67.6539 271.745 67.0909 271.819C66.0815 271.819 65.4262 270.81 65.6299 269.579L79.9394 181.473L81.1525 173.973H84.8272Z" fill="#473F47"/>
<path d="M227.416 173.973L228.629 181.473L242.974 269.579C243.035 270.143 243.283 270.671 243.68 271.077C244.077 271.484 244.598 271.745 245.161 271.819C246.171 271.819 246.826 270.81 246.622 269.579L232.313 181.473L231.1 173.973H227.416Z" fill="#473F47"/>
<path d="M100.739 173.973H79.3545C80.1332 171.759 81.58 169.841 83.4953 168.485C85.4105 167.128 87.6997 166.399 90.0467 166.399C92.3938 166.399 94.683 167.128 96.5982 168.485C98.5135 169.841 99.9603 171.759 100.739 173.973Z" fill="url(#paint2_linear_37_2029)"/>
<path d="M78.3756 133.366C78.0868 132.519 77.1659 132.066 76.3189 132.355C75.4718 132.644 75.0193 133.565 75.3082 134.412L86.8145 168.153C87.1034 169 88.0242 169.453 88.8713 169.164C89.7183 168.875 90.1708 167.954 89.882 167.107L78.3756 133.366Z" fill="url(#paint3_linear_37_2029)"/>
<path d="M76.3715 132.306C75.5177 132.574 75.043 133.484 75.3112 134.338C75.5794 135.192 76.489 135.666 77.3428 135.398L111.354 124.714C112.208 124.445 112.682 123.536 112.414 122.682C112.146 121.828 111.236 121.354 110.382 121.622L76.3715 132.306Z" fill="url(#paint4_linear_37_2029)"/>
<path d="M124.797 125.935C122.052 129.866 118.802 132.381 117.412 131.699C117.349 131.666 117.29 131.628 117.235 131.584L117.049 131.469C112.993 128.627 109.247 121.109 112.09 117.044C114.932 112.98 123.282 113.91 127.338 116.752L127.515 116.885C127.575 116.921 127.631 116.963 127.683 117.009C128.799 118.08 127.55 121.994 124.797 125.935Z" fill="#8DC9F2"/>
<path d="M124.797 125.934C122.052 129.866 118.802 132.381 117.412 131.699L117.288 131.628C117.266 131.619 117.248 131.604 117.235 131.584C116.004 130.601 117.235 126.625 120.051 122.614C122.867 118.603 126.17 116.07 127.516 116.885H127.578L127.684 116.973C128.8 118.08 127.551 121.994 124.797 125.934Z" fill="#68E1FD"/>
<path d="M124.797 125.934C122.052 129.866 118.802 132.381 117.412 131.699L117.288 131.628C117.266 131.619 117.248 131.604 117.235 131.584C116.004 130.601 117.235 126.625 120.051 122.614C122.867 118.603 126.17 116.07 127.516 116.885H127.578L127.684 116.973C128.8 118.08 127.551 121.994 124.797 125.934Z" fill="#D8E5FF"/>
<path opacity="0.7" d="M23.0039 30.1604C33.0067 38.6913 59.3863 58.1423 92.8896 59.0715C93.5748 59.092 94.2247 59.379 94.7017 59.8713C95.1787 60.3634 95.445 61.0225 95.4441 61.708V114.793C95.4444 115.471 95.1844 116.122 94.7177 116.613C94.2509 117.103 93.6132 117.396 92.9368 117.429C82.8637 117.93 44.6658 117.872 19.3554 90.7741C18.904 90.2874 18.6543 89.6474 18.6563 88.9838V32.1708C18.656 31.6671 18.7999 31.1736 19.0713 30.7489C19.3426 30.3246 19.7297 29.9864 20.1871 29.775C20.6442 29.5634 21.1528 29.4872 21.652 29.5557C22.1511 29.624 22.6202 29.8336 23.0039 30.1604Z" fill="#009EF7"/>
<path d="M26.7979 45.8027C26.7979 45.8027 34.6913 53.4726 45.4806 58.2369" stroke="white" stroke-width="2.11417" stroke-miterlimit="10" stroke-linecap="round"/>
<path opacity="0.4" d="M26.7979 55.1035C26.7979 55.1035 37.7834 65.3504 52.0738 69.155" stroke="white" stroke-width="2.11417" stroke-miterlimit="10" stroke-linecap="round"/>
<path d="M25.1621 89.103V66.9297L32.9361 72.4927V95.2019L25.1621 89.103Z" fill="white"/>
<path d="M38.2832 98.0622V82.2637L46.0572 86.9128V102.53L38.2832 98.0622Z" fill="white"/>
<path d="M71.5249 110.431V94.6324L63.751 93.5684V109.186L71.5249 110.431Z" fill="white"/>
<path d="M84.2945 111.107V83.4463H76.5205V110.926L84.2945 111.107Z" fill="white"/>
<path d="M51.0176 104.985V97.7617L58.7915 99.9479V107.8L51.0176 104.985Z" fill="white"/>
<path opacity="0.7" d="M62.7028 201.421C71.8758 204.04 93.3354 208.72 121.455 205.492C121.907 205.428 122.367 205.462 122.804 205.594C123.241 205.725 123.644 205.95 123.986 206.253C124.327 206.556 124.598 206.93 124.78 207.348C124.963 207.766 125.052 208.219 125.042 208.676V252.074C125.021 253.031 124.663 253.951 124.031 254.67C123.399 255.39 122.534 255.864 121.587 256.008C111.575 257.377 81.8469 260.305 59.6934 250.74C59.1266 250.489 58.6467 250.076 58.3144 249.553C57.9821 249.029 57.8127 248.419 57.827 247.8V205.259C57.827 202.743 60.36 200.752 62.7028 201.421Z" fill="url(#paint5_linear_37_2029)"/>
<path opacity="0.9" d="M16.5676 122.579C29.3771 131.985 63.1584 156.53 106.062 152.632C106.479 152.583 106.903 152.624 107.303 152.753C107.703 152.882 108.07 153.095 108.38 153.379C108.691 153.662 108.937 154.009 109.101 154.396C109.265 154.782 109.345 155.2 109.334 155.62V223.601C109.312 224.5 108.981 225.365 108.396 226.049C107.811 226.734 107.008 227.195 106.123 227.357C93.2231 229.528 39.5727 228.456 11.895 200.754C11.6087 200.467 11.3822 200.126 11.2285 199.751C11.0748 199.375 10.9972 198.973 11.0001 198.568V125.814C11.0001 122.933 14.3752 120.969 16.5676 122.579Z" fill="#0292E4"/>
<path d="M37.4147 191.362C30.2668 188.842 24.4723 181.004 24.4723 173.856C24.4723 166.708 30.2668 162.956 37.4147 165.477V157.169C25.867 153.097 16.5059 159.158 16.5059 170.706C16.5059 182.253 25.867 194.915 37.4147 198.987C48.4747 202.887 57.523 197.489 58.2683 186.881L50.3069 184.074C49.7441 190.504 44.189 193.751 37.4147 191.362Z" fill="white"/>
<path d="M40.0693 155.451V163.759C47.2173 166.279 53.0118 174.117 53.0118 181.265C53.0118 181.639 52.9925 182.001 52.9615 182.356L60.9225 185.163C60.9553 184.695 60.9782 184.221 60.9782 183.732C60.9782 172.185 51.6167 159.523 40.0693 155.451Z" fill="#003857"/>
<path d="M70.9453 175.045L85.7276 177.854" stroke="white" stroke-width="3.77651" stroke-miterlimit="10" stroke-linecap="round"/>
<path opacity="0.4" d="M70.9453 198.205L85.7276 201.014" stroke="white" stroke-width="3.77651" stroke-miterlimit="10" stroke-linecap="round"/>
<path d="M70.9453 186.862L92.1828 190.898" stroke="white" stroke-width="3.77651" stroke-miterlimit="10" stroke-linecap="round"/>
<path d="M272.468 29.5373C262.257 36.5909 243.434 54.5773 203.337 59.5785C200.267 59.9613 199.06 62.1028 198.991 64.5056L197.533 115.12C197.53 115.823 197.769 116.505 198.21 117.052C198.651 117.6 199.268 117.978 199.955 118.124C209.975 120.109 249.038 111.334 272.801 92.0869C275.07 90.2486 275.162 87.0577 275.182 86.3947L276.743 32.1877C276.808 29.9388 274.216 28.3301 272.468 29.5373Z" fill="#8DC9F2"/>
<path d="M204.155 68.6282L203.253 99.9343C203.245 100.207 203.298 100.478 203.409 100.727C203.519 100.976 203.685 101.197 203.892 101.374C204.1 101.55 204.345 101.678 204.608 101.747C204.872 101.816 205.148 101.825 205.416 101.773C211.155 100.66 226.686 97.4123 236.559 93.0974C236.876 92.9591 237.144 92.7338 237.337 92.4479C237.528 92.162 237.637 91.8274 237.644 91.483L238.522 60.996C238.534 60.6913 238.466 60.3891 238.326 60.1171C238.188 59.8453 237.984 59.613 237.73 59.4409C237.479 59.2689 237.189 59.1629 236.886 59.1328C236.582 59.1028 236.276 59.1494 235.994 59.2688C230.494 61.6125 217.292 66.698 205.932 66.8625C205.466 66.8713 205.02 67.0599 204.689 67.3887C204.358 67.7175 204.167 68.1616 204.155 68.6282Z" fill="white"/>
<path d="M204.807 94.9375L204.712 98.2302C204.705 98.4796 204.755 98.7272 204.86 98.9538C204.964 99.1805 205.118 99.3802 205.312 99.5371C205.506 99.6941 205.734 99.8042 205.977 99.8588C206.22 99.9136 206.473 99.9115 206.715 99.8527L223.912 95.6793C224.184 95.6137 224.433 95.4792 224.638 95.2887C224.842 95.0983 224.991 94.8587 225.076 94.5925C225.16 94.3266 225.174 94.0436 225.117 93.7708C225.059 93.4976 224.933 93.2442 224.751 93.0346L215.885 82.9288C215.725 82.7475 215.53 82.6039 215.308 82.5087C215.086 82.4132 214.845 82.3685 214.604 82.3777C214.363 82.387 214.127 82.4499 213.914 82.5619C213.7 82.6741 213.514 82.8323 213.369 83.0254L205.131 94.0112C204.93 94.2792 204.817 94.6026 204.807 94.9375Z" fill="#009EF7"/>
<path opacity="0.6" d="M222.427 87.7144L227.392 93.2952C227.551 93.4748 227.761 93.6026 227.993 93.6619C228.224 93.7215 228.469 93.7101 228.697 93.6293C230.226 93.082 233.662 91.8442 235.404 91.1539C235.622 91.0669 235.809 90.918 235.945 90.7253C236.079 90.5325 236.154 90.3045 236.161 90.0693L236.307 84.9783C236.315 84.7184 236.237 84.4632 236.089 84.251L229.168 74.4001C229.042 74.2232 228.873 74.0828 228.676 73.9941C228.479 73.9053 228.261 73.8712 228.047 73.8951C227.833 73.9194 227.629 74.0006 227.454 74.1308C227.282 74.261 227.149 74.435 227.067 74.6349L222.213 86.4559C222.128 86.6648 222.101 86.8934 222.14 87.1159C222.177 87.3383 222.279 87.5456 222.427 87.7144Z" fill="#2CADF6"/>
<path d="M218.175 79.1012C219.693 79.1449 220.96 77.9499 221.004 76.4316C221.047 74.9133 219.852 73.6473 218.333 73.6036C216.815 73.5599 215.549 74.7549 215.505 76.2732C215.461 77.7915 216.657 79.0575 218.175 79.1012Z" fill="#FEBB94"/>
<path d="M246.526 58.5515C253.683 55.1774 260.59 51.2943 267.193 46.9327" stroke="white" stroke-width="2.94905" stroke-miterlimit="10" stroke-linecap="round"/>
<path d="M246.184 70.426C246.184 70.426 250.872 68.3059 257.326 64.6401" stroke="white" stroke-width="2.94905" stroke-miterlimit="10" stroke-linecap="round"/>
<path d="M245.85 82.0359C253.007 78.6615 259.914 74.7787 266.516 70.4171" stroke="white" stroke-width="2.94905" stroke-miterlimit="10" stroke-linecap="round"/>
<path d="M245.475 95.071C252.632 91.6966 259.539 87.8139 266.141 83.4523" stroke="white" stroke-width="2.94905" stroke-miterlimit="10" stroke-linecap="round"/>
<path d="M206.863 110.852C208.25 110.892 209.406 109.801 209.446 108.414C209.486 107.028 208.394 105.871 207.008 105.831C205.621 105.791 204.465 106.883 204.425 108.27C204.385 109.656 205.476 110.813 206.863 110.852Z" fill="white"/>
<path d="M221.538 107.21C222.922 107.249 224.081 106.158 224.121 104.771C224.161 103.385 223.067 102.228 221.682 102.189C220.295 102.149 219.14 103.24 219.1 104.627C219.06 106.013 220.15 107.17 221.538 107.21Z" fill="white"/>
<path d="M234.797 103.103C236.184 103.143 237.34 102.052 237.379 100.665C237.419 99.2783 236.329 98.122 234.941 98.0821C233.557 98.0422 232.398 99.1337 232.358 100.52C232.318 101.907 233.412 103.064 234.797 103.103Z" fill="white"/>
<path opacity="0.9" d="M283.262 110.286C271.628 120.21 240.943 142.835 201.972 143.916C201.175 143.94 200.418 144.274 199.863 144.847C199.309 145.419 198.999 146.186 199 146.983V208.732C199 209.52 199.302 210.278 199.845 210.849C200.388 211.419 201.13 211.759 201.916 211.798C213.634 212.381 258.065 212.314 287.508 180.793C288.032 180.227 288.324 179.482 288.321 178.71V112.625C288.321 112.039 288.153 111.465 287.837 110.971C287.522 110.477 287.071 110.084 286.54 109.838C286.009 109.592 285.416 109.504 284.837 109.583C284.256 109.662 283.71 109.907 283.262 110.286Z" fill="#FFD0B5"/>
<path d="M278.849 128.482C278.849 128.482 269.667 137.404 257.117 142.946" stroke="white" stroke-width="2.45922" stroke-miterlimit="10" stroke-linecap="round"/>
<path opacity="0.4" d="M278.85 139.301C278.85 139.301 266.07 151.22 249.447 155.646" stroke="white" stroke-width="2.45922" stroke-miterlimit="10" stroke-linecap="round"/>
<path d="M207.022 184.997C207.022 184.997 215.562 183.209 219.467 179.067C224.64 173.579 225.834 166.997 231.502 166.32C240.397 165.258 245.554 196.664 256.354 192.414C267.153 188.165 264.601 164.712 271.026 160.737C275.452 157.999 277.753 166.143 283.951 164.018" stroke="white" stroke-width="2.45922" stroke-miterlimit="10" stroke-linecap="round"/>
<path d="M130.815 80.6321C141.289 80.6321 149.779 72.1413 149.779 61.6673C149.779 51.193 141.289 42.7021 130.815 42.7021C120.339 42.7021 111.849 51.193 111.849 61.6673C111.849 72.1413 120.339 80.6321 130.815 80.6321Z" fill="#FEBB94"/>
<path d="M137.572 61.2049C137.572 59.9784 137.239 58.7746 136.607 57.723C135.976 56.6714 135.07 55.8113 133.987 55.2349C132.905 54.6583 131.685 54.3872 130.46 54.4504C129.234 54.5135 128.049 54.9085 127.034 55.5934C126.016 56.2783 125.204 57.2267 124.683 58.3378C124.162 59.4488 123.955 60.6802 124.081 61.9006C124.207 63.1207 124.661 64.2836 125.398 65.2645C126.134 66.2458 127.125 67.0083 128.262 67.4705V69.6898H133.356V67.4705C134.603 66.9635 135.669 66.0967 136.419 64.9805C137.171 63.8647 137.572 62.55 137.572 61.2049Z" stroke="white" stroke-width="0.999002" stroke-linecap="round" stroke-linejoin="round"/>
<path d="M128.264 69.6914H133.377V70.7799C133.377 71.2409 133.194 71.6832 132.866 72.0094C132.541 72.3356 132.098 72.5188 131.638 72.5188H130.002C129.54 72.5188 129.099 72.3356 128.771 72.0094C128.446 71.6832 128.264 71.2409 128.264 70.7799V69.6914Z" stroke="white" stroke-width="0.999002" stroke-linecap="round" stroke-linejoin="round"/>
<path d="M129.668 69.6906V61.9263C129.668 61.7404 129.593 61.5623 129.461 61.4309C129.33 61.2995 129.152 61.2256 128.967 61.2256H128.945C128.76 61.2256 128.58 61.2995 128.451 61.4309C128.319 61.5623 128.244 61.7404 128.244 61.9263C128.244 62.0182 128.263 62.1093 128.298 62.1945C128.333 62.2794 128.384 62.3565 128.451 62.4218C128.516 62.4868 128.593 62.5384 128.677 62.5736C128.763 62.6088 128.854 62.6268 128.945 62.6268H132.675C132.766 62.6268 132.858 62.6088 132.944 62.5736C133.027 62.5384 133.105 62.4868 133.169 62.4218C133.236 62.3565 133.287 62.2794 133.322 62.1945C133.357 62.1093 133.376 62.0182 133.376 61.9263C133.376 61.7404 133.301 61.5623 133.169 61.4309C133.038 61.2995 132.86 61.2256 132.675 61.2256H132.613C132.428 61.2256 132.25 61.2995 132.119 61.4309C131.987 61.5623 131.912 61.7404 131.912 61.9263V69.6906" stroke="white" stroke-width="0.999002" stroke-linecap="round" stroke-linejoin="round"/>
<path d="M130.818 50.8154V52.5512" stroke="white" stroke-width="0.999002" stroke-linecap="round" stroke-linejoin="round"/>
<path d="M124.561 52.4883L125.428 53.9916" stroke="white" stroke-width="0.999002" stroke-linecap="round" stroke-linejoin="round"/>
<path d="M119.979 57.0645L121.48 57.9323" stroke="white" stroke-width="0.999002" stroke-linecap="round" stroke-linejoin="round"/>
<path d="M141.649 57.0781L140.147 57.946" stroke="white" stroke-width="0.999002" stroke-linecap="round" stroke-linejoin="round"/>
<path d="M137.073 52.4961L136.205 53.9991" stroke="white" stroke-width="0.999002" stroke-linecap="round" stroke-linejoin="round"/>
<defs>
<linearGradient id="paint0_linear_37_2029" x1="157.214" y1="222.274" x2="151.228" y2="91.3811" gradientUnits="userSpaceOnUse">
<stop offset="0.01"/>
<stop offset="0.08" stop-opacity="0.69"/>
<stop offset="0.21" stop-opacity="0.32"/>
<stop offset="1" stop-opacity="0"/>
</linearGradient>
<linearGradient id="paint1_linear_37_2029" x1="155.634" y1="141.828" x2="155.634" y2="170.854" gradientUnits="userSpaceOnUse">
<stop stop-color="#FCFDFF"/>
<stop offset="1" stop-color="#D5E3FF"/>
</linearGradient>
<linearGradient id="paint2_linear_37_2029" x1="4189.88" y1="1903.46" x2="4706.32" y2="1903.46" gradientUnits="userSpaceOnUse">
<stop offset="0.01"/>
<stop offset="0.08" stop-opacity="0.69"/>
<stop offset="0.21" stop-opacity="0.32"/>
<stop offset="1" stop-opacity="0"/>
</linearGradient>
<linearGradient id="paint3_linear_37_2029" x1="688.842" y1="8197.99" x2="742.835" y2="8197.99" gradientUnits="userSpaceOnUse">
<stop offset="0.01"/>
<stop offset="0.08" stop-opacity="0.69"/>
<stop offset="0.21" stop-opacity="0.32"/>
<stop offset="1" stop-opacity="0"/>
</linearGradient>
<linearGradient id="paint4_linear_37_2029" x1="700.101" y1="7198.04" x2="836.445" y2="7198.04" gradientUnits="userSpaceOnUse">
<stop offset="0.01"/>
<stop offset="0.08" stop-opacity="0.69"/>
<stop offset="0.21" stop-opacity="0.32"/>
<stop offset="1" stop-opacity="0"/>
</linearGradient>
<linearGradient id="paint5_linear_37_2029" x1="89.7612" y1="201.156" x2="100.613" y2="320.801" gradientUnits="userSpaceOnUse">
<stop stop-color="#0269A5"/>
<stop offset="1" stop-color="#94B9FF"/>
</linearGradient>
</defs>
</svg>
