<svg width="300" height="300" viewBox="0 0 300 300" fill="none" xmlns="http://www.w3.org/2000/svg">
<path d="M157.672 255.344C224.317 255.344 278.343 201.317 278.343 134.672C278.343 68.0266 224.317 14 157.672 14C91.0269 14 37 68.0266 37 134.672C37 201.317 91.0269 255.344 157.672 255.344Z" stroke="#44454C" stroke-miterlimit="10"/>
<path d="M59.503 68.0669C61.8504 68.0669 63.7534 66.1639 63.7534 63.8165C63.7534 61.469 61.8504 59.5664 59.503 59.5664C57.1559 59.5664 55.2529 61.469 55.2529 63.8165C55.2529 66.1639 57.1559 68.0669 59.503 68.0669Z" fill="#8CC7F2"/>
<path d="M278.342 143.518C280.691 143.518 282.595 141.615 282.595 139.268C282.595 136.921 280.691 135.018 278.342 135.018C275.997 135.018 274.093 136.921 274.093 139.268C274.093 141.615 275.997 143.518 278.342 143.518Z" fill="#0169A4"/>
<path d="M200.25 26.5005C202.598 26.5005 204.5 24.5975 204.5 22.2504C204.5 19.903 202.598 18 200.25 18C197.903 18 196 19.903 196 22.2504C196 24.5975 197.903 26.5005 200.25 26.5005Z" fill="#0193E5"/>
<path d="M160.467 225.484C210.183 225.484 250.485 185.182 250.485 135.467C250.485 85.7506 210.183 45.4482 160.467 45.4482C110.752 45.4482 70.4492 85.7506 70.4492 135.467C70.4492 185.182 110.752 225.484 160.467 225.484Z" stroke="#44454C" stroke-miterlimit="10"/>
<path d="M260.171 73.3411C261.922 73.3411 263.341 71.9216 263.341 70.1707C263.341 68.4195 261.922 67 260.171 67C258.419 67 257 68.4195 257 70.1707C257 71.9216 258.419 73.3411 260.171 73.3411Z" fill="#FEBB94"/>
<path d="M76.977 172.467C78.7283 172.467 80.1478 171.048 80.1478 169.296C80.1478 167.545 78.7283 166.126 76.977 166.126C75.2261 166.126 73.8066 167.545 73.8066 169.296C73.8066 171.048 75.2261 172.467 76.977 172.467Z" fill="#009EF7"/>
<path d="M120.146 58.0706C121.897 58.0706 123.317 56.6511 123.317 54.8999C123.317 53.149 121.897 51.7295 120.146 51.7295C118.395 51.7295 116.976 53.149 116.976 54.8999C116.976 56.6511 118.395 58.0706 120.146 58.0706Z" fill="#1C85E8"/>
<path d="M64.2725 252.514H266.285V257.061C266.285 258.194 265.835 259.28 265.034 260.082C264.233 260.883 263.146 261.333 262.014 261.333H68.5443C67.4114 261.333 66.3248 260.883 65.5237 260.082C64.7225 259.28 64.2725 258.194 64.2725 257.061V252.514Z" fill="#003857"/>
<path d="M262.83 256.305H67.7269C67.1782 256.304 66.6375 256.173 66.1496 255.922C65.6617 255.671 65.2405 255.307 64.9211 254.861C64.6017 254.415 64.3931 253.899 64.3127 253.357C64.2323 252.814 64.2823 252.26 64.4586 251.74L81.9902 200.007C82.7499 197.762 84.1945 195.811 86.1206 194.43C88.0467 193.049 90.3574 192.306 92.7276 192.307H237.829C240.2 192.306 242.51 193.049 244.437 194.43C246.363 195.811 247.807 197.762 248.567 200.007L266.099 251.74C266.275 252.26 266.325 252.814 266.244 253.357C266.164 253.899 265.955 254.415 265.636 254.861C265.317 255.307 264.895 255.671 264.408 255.922C263.92 256.173 263.379 256.304 262.83 256.305Z" fill="url(#paint0_linear_37_1919)"/>
<path opacity="0.5" d="M243.007 225.932H88.0116C87.5681 225.932 87.1306 225.829 86.7341 225.631C86.3376 225.432 85.9931 225.143 85.7281 224.788C85.4632 224.432 85.2851 224.02 85.2081 223.583C85.1312 223.146 85.1575 222.697 85.285 222.273L91.5019 201.277C91.6984 200.63 92.0964 200.062 92.6378 199.656C93.1793 199.251 93.8361 199.028 94.5126 199.021H235.725C236.483 199.027 237.219 199.275 237.826 199.728C238.433 200.182 238.88 200.818 239.099 201.544L245.378 222.69C245.492 223.066 245.516 223.463 245.449 223.849C245.382 224.236 245.225 224.601 244.991 224.917C244.757 225.232 244.452 225.488 244.102 225.664C243.751 225.84 243.364 225.932 242.972 225.932H243.007ZM94.5126 199.91C94.0275 199.914 93.5564 200.073 93.1681 200.363C92.7798 200.654 92.4947 201.062 92.3545 201.526L86.1376 222.53C86.0504 222.822 86.0326 223.13 86.0857 223.43C86.1388 223.73 86.2612 224.013 86.4433 224.258C86.6253 224.502 86.8619 224.7 87.1342 224.836C87.4065 224.973 87.707 225.044 88.0116 225.044H243.007C243.261 225.043 243.511 224.984 243.737 224.87C243.964 224.756 244.16 224.59 244.311 224.386C244.462 224.183 244.564 223.946 244.607 223.697C244.65 223.447 244.635 223.19 244.561 222.948L238.282 201.792C238.116 201.251 237.782 200.777 237.329 200.439C236.875 200.1 236.326 199.915 235.76 199.91H94.5126Z" fill="#080B09"/>
<path opacity="0.5" d="M192.144 249.317H138.413C137.96 249.319 137.514 249.219 137.106 249.024C136.698 248.828 136.34 248.543 136.059 248.189C135.774 247.838 135.572 247.427 135.467 246.988C135.363 246.548 135.359 246.09 135.455 245.649L138.022 233.97C138.263 232.95 138.84 232.041 139.659 231.389C140.479 230.737 141.495 230.379 142.542 230.373H188.014C189.067 230.381 190.086 230.744 190.906 231.403C191.727 232.062 192.301 232.979 192.535 234.005L195.102 245.684C195.198 246.126 195.194 246.583 195.089 247.023C194.985 247.463 194.782 247.873 194.498 248.224C194.213 248.572 193.853 248.851 193.446 249.04C193.038 249.229 192.593 249.324 192.144 249.317ZM142.542 231.261C141.691 231.265 140.866 231.558 140.203 232.092C139.539 232.626 139.077 233.37 138.892 234.201L136.325 245.871C136.256 246.183 136.258 246.507 136.331 246.818C136.404 247.129 136.545 247.42 136.746 247.669C136.946 247.918 137.2 248.119 137.489 248.256C137.777 248.394 138.093 248.465 138.413 248.464H192.144C192.464 248.465 192.78 248.394 193.068 248.256C193.357 248.119 193.61 247.918 193.811 247.669C194.011 247.42 194.153 247.129 194.226 246.818C194.299 246.507 194.3 246.183 194.231 245.871L191.665 234.201C191.479 233.37 191.017 232.626 190.354 232.092C189.691 231.558 188.866 231.265 188.014 231.261H142.542Z" fill="#080B09"/>
<path d="M240.184 80.7139H90.2417C87.0485 80.7139 84.46 83.3024 84.46 86.4956V186.525C84.46 189.718 87.0485 192.307 90.2417 192.307H240.184C243.377 192.307 245.966 189.718 245.966 186.525V86.4956C245.966 83.3024 243.377 80.7139 240.184 80.7139Z" fill="url(#paint1_linear_37_1919)"/>
<path d="M237.332 88.4062H92.7451V184.457H237.332V88.4062Z" fill="url(#paint2_linear_37_1919)"/>
<path d="M104.176 64.416H226.382C227.446 64.416 228.467 64.839 229.22 65.5918C229.973 66.3446 230.396 67.3657 230.396 68.4304V184.437H100.152V68.4392C100.151 67.9106 100.254 67.3869 100.456 66.8982C100.658 66.4096 100.954 65.9656 101.328 65.5918C101.702 65.218 102.146 64.9217 102.635 64.7199C103.123 64.5181 103.647 64.4149 104.176 64.416Z" fill="url(#paint3_linear_37_1919)"/>
<path d="M100 69C100 66.2386 102.239 64 105 64H226C228.209 64 230 65.7909 230 68V81H100V69Z" fill="#009EF7"/>
<path d="M144.994 85.8389H112.862C110.385 85.8389 108.377 87.8469 108.377 90.3239V101.461C108.377 103.938 110.385 105.946 112.862 105.946H144.994C147.471 105.946 149.479 103.938 149.479 101.461V90.3239C149.479 87.8469 147.471 85.8389 144.994 85.8389Z" fill="white"/>
<path d="M144.994 111.488H112.862C110.385 111.488 108.377 113.496 108.377 115.973V172.05C108.377 174.527 110.385 176.535 112.862 176.535H144.994C147.471 176.535 149.479 174.527 149.479 172.05V115.973C149.479 113.496 147.471 111.488 144.994 111.488Z" fill="white"/>
<path d="M217.697 85.8389H159.4C156.923 85.8389 154.915 87.8469 154.915 90.3239V172.04C154.915 174.517 156.923 176.525 159.4 176.525H217.697C220.174 176.525 222.182 174.517 222.182 172.04V90.3239C222.182 87.8469 220.174 85.8389 217.697 85.8389Z" fill="white"/>
<path d="M111.184 72.2588C112.248 72.2588 113.111 71.3959 113.111 70.3315C113.111 69.2671 112.248 68.4043 111.184 68.4043C110.12 68.4043 109.257 69.2671 109.257 70.3315C109.257 71.3959 110.12 72.2588 111.184 72.2588Z" fill="#E6E7E8"/>
<path d="M118.644 72.2588C119.708 72.2588 120.571 71.3959 120.571 70.3315C120.571 69.2671 119.708 68.4043 118.644 68.4043C117.58 68.4043 116.717 69.2671 116.717 70.3315C116.717 71.3959 117.58 72.2588 118.644 72.2588Z" fill="#E6E7E8"/>
<path d="M126.104 72.2588C127.168 72.2588 128.031 71.3959 128.031 70.3315C128.031 69.2671 127.168 68.4043 126.104 68.4043C125.04 68.4043 124.177 69.2671 124.177 70.3315C124.177 71.3959 125.04 72.2588 126.104 72.2588Z" fill="#E6E7E8"/>
<path d="M220.236 70.7673H199.915C199.862 70.7673 199.809 70.7567 199.759 70.7362C199.709 70.71`56 199.664 70.6856 199.626 70.6476C199.589 70.6097 199.558 70.5646 199.538 70.5151C199.517 70.4655 199.507 70.4124 199.507 70.3587C199.507 70.3055 199.517 70.2528 199.538 70.2037C199.559 70.1546 199.589 70.1102 199.627 70.073C199.665 70.0357 199.71 70.0065 199.76 69.9869C199.809 69.9674 199.862 69.9579 199.915 69.9591H220.253C220.306 69.9591 220.358 69.9694 220.406 69.9895C220.455 70.0096 220.499 70.039 220.536 70.0761C220.573 70.1133 220.603 70.1573 220.623 70.2058C220.643 70.2543 220.653 70.3063 220.653 70.3587C220.653 70.4131 220.642 70.467 220.621 70.5172C220.6 70.5673 220.569 70.6127 220.53 70.6508C220.491 70.6889 220.445 70.7188 220.395 70.7388C220.344 70.7588 220.29 70.7685 220.236 70.7673Z" fill="#E6E7E8"/>
<path d="M165.154 216.606C175.945 216.606 184.693 214.817 184.693 212.61C184.693 210.403 175.945 208.613 165.154 208.613C154.363 208.613 145.615 210.403 145.615 212.61C145.615 214.817 154.363 216.606 165.154 216.606Z" fill="#0168A3"/>
<path d="M54.9424 261.139C54.8898 262.758 55.1932 264.369 55.8312 265.858C56.6182 267.259 57.8133 268.386 59.2573 269.09C62.3533 270.691 65.9449 271.043 69.2931 270.076C69.7494 269.986 70.1604 269.74 70.4567 269.381C70.6179 269.073 70.6853 268.725 70.6506 268.379C70.4014 266.533 69.4668 264.849 68.0326 263.66C66.6 262.497 65.3759 261.098 64.4126 259.523C62.7965 256.42 64.0247 248.211 58.1745 249.471C53.294 250.489 54.8131 257.632 54.9424 261.139Z" fill="#FFCCB3"/>
<path d="M54.6826 261.843C55.0514 261.665 55.4718 261.625 55.8677 261.73C56.2636 261.835 56.3604 262.62 56.5928 262.957C57.3869 263.842 56.8925 264.011 58.0154 264.402C59.1383 264.792 60.3419 264.891 61.5136 264.69C64.1336 264.063 65.2037 261 66.4953 261C67.7868 261 76.5465 266.898 76.934 269.445C77.3215 271.991 73.7605 273.873 69.8121 274.113C65.8636 274.352 56.8966 271.64 55.2545 269.555C54.545 268.411 54.1225 267.112 54.0229 265.769C53.9233 264.426 54.1496 263.079 54.6826 261.843Z" fill="#080B09"/>
<path d="M34.8871 264.274C34.8346 265.893 35.138 267.504 35.776 268.993C36.5647 270.398 37.7664 271.526 39.2182 272.225C42.3083 273.826 45.8951 274.179 49.2379 273.211C49.7151 273.11 50.1399 272.841 50.4338 272.451C50.5949 272.144 50.6624 271.795 50.6277 271.449C50.3784 269.604 49.4438 267.919 48.0096 266.73C46.5771 265.567 45.353 264.168 44.3896 262.593C42.8544 259.49 44.0018 251.281 38.1516 252.558C33.2387 253.689 34.7579 260.832 34.8871 264.274Z" fill="#FFCCB3"/>
<path d="M34.5206 265.342C34.642 265.063 34.888 264.638 35.2847 264.74C35.6814 264.842 36.028 265.084 36.2605 265.421C37.0519 266.311 38.0558 266.985 39.1786 267.382C40.3015 267.779 41.5065 267.885 42.6813 267.69C45.3013 267.063 46.3715 264 47.6814 264C48.9914 264 56.5768 269.976 56.9642 272.522C57.3517 275.068 53.7907 276.95 49.8423 277.19C45.8939 277.43 36.9269 274.717 35.2848 272.632C34.5692 271.487 34.1432 270.185 34.0436 268.838C33.9439 267.491 33.9814 266.58 34.5206 265.342Z" fill="#080B09"/>
<path d="M30.718 177.944C30.718 177.944 29.6191 238.013 34.0633 258.052L45.3758 259.442L53.1975 177.2L30.718 177.944Z" fill="#003857"/>
<path d="M65.5922 171.382C65.5922 171.382 70.9091 203.703 64.461 255.822L53.1485 257.228L45.3267 174.97L65.5922 171.382Z" fill="#003857"/>
<path d="M64.5585 146.041C64.5585 147.123 64.704 148.222 64.704 149.273C64.704 155.269 63.3141 161.442 65.108 167.324C65.6868 168.576 65.8564 169.979 65.5928 171.332C65.084 172.417 64.1917 173.275 63.0879 173.74C57.8033 176.633 51.7754 177.522 45.7313 178.362C41.2547 178.992 34.8874 180.318 30.7503 177.91C29.1743 176.74 28.1187 175 27.809 173.061C26.224 166.873 25.287 160.536 25.0132 154.153C25.0132 153.313 24.9001 152.537 24.8516 151.665C24.5122 145.911 24.3829 140.174 24.4961 134.437C24.4961 130.268 24.9163 125.759 27.6313 122.608C31.2513 118.422 38.2488 115.642 43.5657 114.673C45.2942 114.329 47.064 114.242 48.818 114.414C51.2963 114.812 53.6896 115.626 55.8964 116.822C58.5467 118.131 60.89 119.23 62.1829 121.832C63.6082 124.851 64.6036 128.055 65.1403 131.351C65.6143 134.437 65.6687 137.574 65.3019 140.675C65.1403 142.194 64.7524 143.697 64.607 145.217C64.5747 145.491 64.5747 145.766 64.5585 146.041Z" fill="#009EF7"/>
<path d="M59.5485 118.924L75.3698 127.36L108.855 115.466L114.673 129.784C114.673 129.784 83.9673 145.492 78.0363 145.557C72.1054 145.622 56.5103 141.307 56.5103 141.307L59.5485 118.924Z" fill="#009EF7"/>
<path d="M73.4305 136.409C71.6367 136.199 62.6674 131.739 61.6816 130.995C63.0553 133.888 64.9138 142.874 65.2208 143.051C68.6026 144.739 72.2798 145.755 76.0485 146.041C79.8292 146.319 83.6171 145.606 87.0378 143.972C88.7179 142.991 88.2242 142.295 90 141.5C91.0666 141.096 93.4496 139.856 94.5 139.5C97.2947 138.442 98.9376 137.5 103 135.5C103.388 135.309 104.222 134.831 104.5 134.5C104.778 134.169 104.758 134.497 104.879 134.082C105.041 133.016 104.087 132.111 103.118 131.642C101.589 130.971 99.9385 130.625 98.2695 130.624C96.0768 130.34 93.854 130.389 91.6759 130.769C90.3023 131.157 89.2842 132.385 87.9428 133.048C84.0642 134.745 77.6323 136.894 73.4305 136.409Z" fill="#01639B"/>
<path d="M40.3213 179.082C36.5 179.5 34.8252 179.242 33.5 179C32.692 178.871 31.4119 178.136 30.717 177.942C26.7415 176.957 26.2728 165.806 25.8688 162.8C24.8345 154.865 23.2508 146.639 23.1538 138.688C22.981 135.623 23.3363 132.551 24.2042 129.606C24.6536 128.133 25.4204 126.776 26.4507 125.631C27.481 124.486 28.7497 123.581 30.1675 122.98C30.7235 122.745 31.3374 122.683 31.9291 122.802C34.337 123.416 34.838 127.408 35.2582 129.266C35.9854 132.66 37.6338 134.212 39.3145 136.927C40.9952 139.642 41.1083 143.035 42.7083 145.831C43.1035 146.612 43.6533 147.305 44.3243 147.867C45.6905 148.665 47.2776 148.999 48.8493 148.821H60.2588C61.177 148.694 62.1088 148.925 62.8607 149.467C63.1904 149.899 63.4219 150.397 63.5392 150.928C63.6564 151.458 63.6565 152.007 63.5394 152.538L62.8445 160.974C62.8557 161.343 62.7604 161.708 62.5698 162.024C62.2422 162.36 61.808 162.571 61.3416 162.622C58.2163 163.073 55.1798 164.005 52.3401 165.386C49.5828 167.279 46.6496 168.903 43.5809 170.234C42.6964 170.631 41.8872 171.177 41.1891 171.85C40.3738 172.868 39.965 174.152 40.0417 175.454C40.0417 176.278 41.3071 177.902 41 178.5C40.9316 178.637 40.8362 178.76 40.7196 178.86C40.603 178.96 40.4676 179.035 40.3213 179.082Z" fill="#01639B"/>
<path d="M52.308 109.728C51.676 110.427 50.8058 110.865 49.8677 110.956C49.0829 111.029 48.2931 111.029 47.5083 110.956H47.0719C46.9668 110.923 46.8539 110.923 46.7487 110.956C46.7007 111.002 46.6629 111.057 46.6379 111.118C46.6128 111.18 46.601 111.246 46.6033 111.312C46.4658 112.882 46.4658 114.461 46.6033 116.031C46.6033 116.322 46.6033 116.596 46.6033 116.887C46.6863 117.178 46.6863 117.486 46.6033 117.776C46.3778 118.097 46.0356 118.318 45.6498 118.39C44.9624 118.625 44.2427 118.75 43.5166 118.762C41.953 118.651 40.442 118.151 39.1208 117.307C39.2348 114.607 39.0941 111.901 38.7007 109.227C38.1997 105.785 37.2947 102.343 37.6664 98.8842C37.7629 97.5312 38.2704 96.24 39.1208 95.1834C39.8008 94.5385 40.6072 94.0418 41.489 93.7247C42.3708 93.4076 43.3089 93.2769 44.2438 93.3411C46.7217 93.3055 49.159 93.9722 51.2737 95.2642C52.0494 95.7975 52.1302 96.4763 52.308 97.3489C52.5827 98.7064 52.7928 100.08 52.9544 101.454C53.116 102.827 53.213 104.589 53.2453 106.173C53.3671 107.432 53.0346 108.693 52.308 109.728Z" fill="#FFCCB3"/>
<path d="M45.6493 102.434C45.3724 101.882 45.4408 101.288 45.802 101.107C46.163 100.926 46.6801 101.226 46.957 101.777C47.2337 102.328 47.1654 102.922 46.8044 103.103C46.4431 103.284 45.926 102.985 45.6493 102.434Z" fill="#080B09"/>
<path d="M50.61 99.9031C50.3333 99.352 50.4017 98.7582 50.7627 98.5768C51.1239 98.3954 51.641 98.6954 51.918 99.2465C52.1947 99.7976 52.1263 100.391 51.7653 100.573C51.4041 100.754 50.887 100.454 50.61 99.9031Z" fill="#080B09"/>
<path d="M49.9651 101.719C49.9651 101.719 49.6335 103.145 50.5828 102.922C51.4815 102.679 52.1428 103.074 51.4287 104.074" stroke="#E56441" stroke-width="0.280986" stroke-linecap="round"/>
<path d="M51.5835 105.261L51.5799 105.262L51.5764 105.263C51.0269 105.447 49.9297 105.813 49.2036 106.069L49.2024 106.069C49.1789 106.077 49.158 106.091 49.1421 106.11C49.1259 106.13 49.1156 106.153 49.1118 106.177C49.108 106.202 49.1112 106.227 49.1207 106.25C49.1298 106.272 49.1448 106.292 49.164 106.307C49.3741 106.445 49.6447 106.605 49.9321 106.729C50.222 106.854 50.5204 106.939 50.7862 106.935C51.0473 106.931 51.2734 106.843 51.4393 106.622C51.6095 106.395 51.7282 106.014 51.732 105.399L51.7319 105.39L51.7336 105.381C51.7367 105.362 51.7348 105.342 51.7278 105.323C51.7207 105.305 51.709 105.289 51.6937 105.277C51.6784 105.264 51.6602 105.257 51.6409 105.254C51.6215 105.251 51.6016 105.253 51.5835 105.261Z" fill="#E56441" stroke="#E56441" stroke-width="0.233896"/>
<path d="M43.3254 100.979L43.4047 101.071C43.5087 101.216 43.6659 101.313 43.8415 101.343C44.0173 101.372 44.1974 101.331 44.343 101.228L46.7948 99.3913C46.9172 99.3074 47.0036 99.1805 47.0369 99.0359C47.0702 98.8912 47.0477 98.7394 46.9744 98.6106C46.9332 98.5294 46.8751 98.458 46.8042 98.4008C46.7333 98.3438 46.6513 98.3024 46.5631 98.2796C46.4752 98.2565 46.3833 98.2526 46.2935 98.2679C46.2038 98.283 46.1185 98.3171 46.0428 98.3679L43.5114 100.112C43.4412 100.156 43.3804 100.213 43.3328 100.281C43.2852 100.348 43.2518 100.425 43.2344 100.506C43.2171 100.587 43.2161 100.67 43.2317 100.751C43.2474 100.833 43.2792 100.91 43.3254 100.979Z" fill="#080B09"/>
<path d="M51.9247 96.0595L48.902 96.619C48.8126 96.6366 48.7282 96.673 48.6541 96.7257C48.5801 96.7786 48.5177 96.8464 48.4719 96.9249C48.4258 97.0035 48.3972 97.0908 48.3874 97.1812C48.3777 97.2716 48.3874 97.3632 48.4156 97.4496C48.455 97.5928 48.5467 97.7158 48.6725 97.7944C48.7983 97.8731 48.9491 97.9016 49.0952 97.8743L52.127 97.4364C52.3025 97.4062 52.459 97.3079 52.5625 97.1627C52.6658 97.0175 52.7077 96.8375 52.6787 96.6617L52.6696 96.5402C52.6535 96.459 52.6214 96.3819 52.575 96.3135C52.5283 96.2449 52.4687 96.1867 52.3993 96.1416C52.3296 96.0968 52.2519 96.0664 52.1702 96.0524C52.0887 96.0383 52.0052 96.0406 51.9247 96.0595Z" fill="#080B09"/>
<path d="M44.4002 102.824C43.876 101.591 44.2118 100.268 45.1501 99.8696C46.0881 99.4709 47.2735 100.148 47.7975 101.381C48.3215 102.614 47.9857 103.937 47.0476 104.336C46.1096 104.734 44.9242 104.058 44.4002 102.824Z" stroke="#080B09" stroke-width="0.233896" stroke-miterlimit="10"/>
<path d="M49.7828 100.601C49.2588 99.3675 49.5946 98.0445 50.5326 97.6459C51.4709 97.2473 52.6563 97.9241 53.1803 99.1574C53.7043 100.391 53.3685 101.714 52.4302 102.112C51.4921 102.511 50.3068 101.834 49.7828 100.601Z" stroke="#080B09" stroke-width="0.233896" stroke-miterlimit="10"/>
<path d="M49.7832 100.602C49.7832 100.602 48.4946 100.563 47.7992 101.381" stroke="#080B09" stroke-width="0.233896" stroke-miterlimit="10"/>
<path d="M44.5547 103.132L41.3307 103.132" stroke="#080B09" stroke-width="0.233896" stroke-miterlimit="10"/>
<path d="M49.5606 96.0396C47.9445 96.476 45.8598 96.0396 44.2276 96.7507C43.1082 97.3241 42.2336 98.2824 41.7645 99.4493C41.2953 100.616 41.2633 101.913 41.6742 103.102C41.0116 103.344 40.8823 102.132 40.3651 101.647C39.848 101.163 38.7491 101.809 38.6036 102.649C38.6487 103.494 38.8983 104.315 39.3309 105.041C39.9689 106.527 40.0829 108.185 39.6541 109.744C39.541 110.116 39.2662 110.552 38.9107 110.455C38.5551 110.358 38.2804 109.728 38.0542 109.453C37.6941 109.023 37.2995 108.623 36.8744 108.257C36.0664 107.546 35.1614 106.916 34.321 106.221C33.4807 105.526 33.1736 104.863 32.204 104.605C31.2874 104.421 30.3581 104.308 29.4243 104.265C28.6904 104.124 28.0105 103.78 27.4608 103.274C26.911 102.768 26.5132 102.118 26.3118 101.398C26.1105 100.679 26.1136 99.9169 26.3208 99.1988C26.528 98.4806 26.9312 97.8344 27.4851 97.3325C27.8046 97.1105 28.0743 96.8243 28.2769 96.4921C28.3987 96.117 28.4319 95.7187 28.3739 95.3286C28.3953 94.3084 28.6693 93.3095 29.1713 92.4211C29.6733 91.5327 30.3876 90.7826 31.2505 90.2379C32.9806 89.1476 34.9913 88.5859 37.036 88.6219C37.4787 88.6509 37.9228 88.5961 38.345 88.4603C38.7351 88.2606 39.0899 87.9986 39.3955 87.6845C40.2597 86.953 41.2756 86.4226 42.3698 86.1317C43.4641 85.8407 44.6093 85.7965 45.7227 86.0022C46.8361 86.2078 47.8899 86.6583 48.8079 87.3209C49.726 87.9836 50.4854 88.8419 51.0312 89.8339C51.6912 90.9416 51.9481 92.2432 51.7585 93.5186C51.7006 94.1154 51.4577 94.6793 51.0636 95.1314C50.6695 95.5834 50.144 95.9009 49.5606 96.0396Z" fill="#493212"/>
<path d="M47.5087 111.005H47.0723C46.9672 110.971 46.8543 110.971 46.7491 111.005C46.7011 111.05 46.6633 111.106 46.6383 111.167C46.6132 111.228 46.6014 111.294 46.6037 111.36C46.4662 112.93 46.4662 114.509 46.6037 116.079C45.2171 115.637 44.0257 114.73 43.2307 113.511C42.4357 112.292 42.0859 110.836 42.2403 109.389C43.9518 110.11 45.7337 110.652 47.5571 111.005H47.5087Z" fill="#FFB191"/>
<path d="M40.0081 128.39C38.4268 123.931 33.5307 121.599 29.0724 123.181C24.6141 124.762 22.282 129.658 23.8633 134.116L31.616 155.973C33.1974 160.431 38.0935 162.763 42.5517 161.182C47.01 159.6 49.3422 154.704 47.7608 150.246L40.0081 128.39Z" fill="#009EF7"/>
<path d="M76.2906 139.931C77.0986 139.333 77.9067 138.671 78.5854 138.024C80.341 136.44 82.3238 135.127 84.4679 134.13C86.6212 133.128 89.0336 132.823 91.3686 133.257C91.8695 133.354 92.4675 133.661 92.4029 134.178C92.3382 134.695 92.0473 134.728 91.7403 134.889C90.381 135.643 88.9454 136.25 87.4577 136.699C86.8436 136.877 86.1325 137.103 85.8416 137.701C86.339 137.757 86.8424 137.696 87.3122 137.523C89.1539 137.058 91.0631 136.922 92.9523 137.119C93.1301 137.119 93.3402 137.119 93.4371 137.346C93.5341 137.572 93.4371 137.83 93.1462 137.976C91.3362 139.414 88.6212 139.317 86.892 140.869C86.585 141.127 86.3587 141.677 86.6981 141.887C86.8396 141.935 86.993 141.935 87.1345 141.887C87.8778 141.887 88.6051 141.58 89.3485 141.45C90.5358 141.216 91.7541 141.184 92.9523 141.353C93.0317 141.356 93.1098 141.375 93.1819 141.408C93.2541 141.441 93.3189 141.489 93.3725 141.547C93.5503 141.822 93.1786 142.129 92.8877 142.275L86.6335 145.006C87.4938 145.079 88.3588 145.079 89.2192 145.006C90.0953 144.956 90.9587 145.233 91.6433 145.782C91.6706 145.795 91.6939 145.816 91.7109 145.841C91.7279 145.867 91.738 145.896 91.7403 145.927C91.7403 146.04 91.7403 146.105 91.5625 146.153C90.5624 146.693 89.4625 147.023 88.3303 147.123C87.6575 147.174 86.9915 147.293 86.3426 147.478C85.9487 147.624 85.5654 147.797 85.1952 147.996C83.9926 148.634 82.6932 149.071 81.3489 149.288C79.9992 149.517 78.6117 149.29 77.4057 148.642C77.0835 148.438 76.7425 148.265 76.3876 148.125C75.0947 147.769 73.6564 149.111 72.4605 148.48C72.0594 148.207 71.7363 147.834 71.5232 147.398C70.8768 146.331 68.7112 143.357 70.4566 142.372C71.4381 141.988 72.4419 141.664 73.4625 141.402C74.4589 141.023 75.4079 140.529 76.2906 139.931Z" fill="#FFCCB3"/>
<path d="M49.2376 143.375L70.6344 141.322L74.0928 151.762C74.0928 151.762 42.8218 164.481 36.7454 160.941C30.6689 157.402 36.309 151.633 36.309 151.633C36.309 151.633 37.0201 143.165 49.2376 143.375Z" fill="#009EF7"/>
<path d="M116.143 116.937C116.452 117.052 116.787 117.078 117.11 117.012C117.432 116.946 117.73 116.791 117.969 116.565C118.681 115.741 118.115 114.496 117.533 113.575C118.083 113.155 118.875 113.688 119.295 114.254C119.715 114.82 120.216 115.498 120.911 115.417C121.606 115.337 121.994 114.383 121.816 113.672C121.537 112.979 121.185 112.318 120.765 111.7C121.072 111.28 121.751 111.7 122.026 112.105C122.301 112.509 122.672 113.123 123.173 113.01C123.37 112.921 123.529 112.765 123.621 112.569C123.713 112.373 123.732 112.151 123.674 111.943C123.552 111.525 123.46 111.098 123.399 110.666C124.256 110.391 125.242 111.28 126.034 110.86C126.173 110.757 126.288 110.625 126.372 110.474C126.457 110.323 126.508 110.156 126.524 109.983C126.539 109.811 126.518 109.637 126.461 109.474C126.404 109.31 126.314 109.16 126.195 109.034C125.685 108.54 125.026 108.227 124.321 108.145C122.576 107.774 120.758 107.989 119.149 108.759C117.291 109.503 115.351 109.89 113.541 110.828C111.87 111.537 110.399 112.647 109.259 114.06C109.169 114.217 109.141 114.401 109.18 114.577C109.219 114.753 109.322 114.909 109.469 115.013C109.71 115.095 109.971 115.095 110.212 115.013C111.497 114.772 112.826 114.996 113.962 115.644C114.572 116.071 115.209 116.46 115.869 116.807L116.143 116.937Z" fill="#FFBAA8"/>
<path d="M220.382 118.606C216.372 193.761 166.076 213.405 166.076 213.405C110.237 180.136 110.518 115.167 110.518 115.167C146.105 105.56 166.459 85.9065 167.094 85.2617C180.365 104.597 220.382 118.606 220.382 118.606Z" fill="#009EF7"/>
<path d="M220.382 118.306C216.372 193.461 166.076 213.105 166.076 213.105C110.237 179.836 110.518 114.867 110.518 114.867C146.123 105.278 166.478 85.6532 167.113 84.999C180.365 104.344 220.382 118.306 220.382 118.306Z" fill="url(#paint4_linear_37_1919)"/>
<path d="M213.886 122.249C210.344 188.489 166.019 205.806 166.019 205.806C116.807 176.48 117.05 119.221 117.05 119.221C148.422 110.754 166.356 93.4282 166.917 92.8955C178.598 109.951 213.886 122.249 213.886 122.249Z" fill="#6AC9FF"/>
<path opacity="0.7" d="M166.927 92.8867L165.992 205.807C116.78 176.481 117.022 119.222 117.022 119.222C148.395 110.755 166.329 93.4288 166.889 92.8961L166.927 92.8867Z" fill="#01639B"/>
<path d="M166.02 149.978C170.815 149.978 174.702 146.091 174.702 141.296C174.702 136.501 170.815 132.614 166.02 132.614C161.225 132.614 157.338 136.501 157.338 141.296C157.338 146.091 161.225 149.978 166.02 149.978Z" fill="#003857"/>
<path d="M160.796 162.949H170.151L167.497 149.043H164.085L160.796 162.949Z" fill="#003857"/>
<path opacity="0.18" d="M119.414 138.118H130.582V130.016H139.432" stroke="white" stroke-width="0.897154" stroke-miterlimit="10"/>
<path opacity="0.18" d="M121.602 146.801H136.143V164.482H145.245" stroke="white" stroke-width="0.897154" stroke-miterlimit="10"/>
<path opacity="0.18" d="M212.961 132.614H194.551V122.175H178.112" stroke="white" stroke-width="0.897154" stroke-miterlimit="10"/>
<path opacity="0.18" d="M209.531 149.978H191.597V168.36H178.953" stroke="white" stroke-width="0.897154" stroke-miterlimit="10"/>
<path opacity="0.18" d="M139.433 182.331H154.479V175.266H163.581" stroke="white" stroke-width="0.897154" stroke-miterlimit="10"/>
<path d="M115.98 116.969C116.289 117.084 116.624 117.11 116.947 117.044C117.269 116.979 117.567 116.824 117.806 116.597C118.517 115.773 117.952 114.529 117.37 113.607C117.92 113.187 118.711 113.72 119.132 114.286C119.552 114.852 120.053 115.53 120.748 115.45C121.443 115.369 121.83 114.415 121.653 113.704C121.374 113.012 121.021 112.351 120.602 111.733C120.909 111.313 121.588 111.733 121.863 112.137C122.137 112.541 122.509 113.155 123.01 113.042C123.207 112.953 123.366 112.797 123.458 112.601C123.55 112.406 123.569 112.183 123.511 111.975C123.389 111.557 123.297 111.13 123.236 110.698C124.093 110.424 125.079 111.313 125.871 110.892C126.009 110.789 126.125 110.657 126.209 110.506C126.294 110.355 126.345 110.188 126.361 110.015C126.376 109.843 126.354 109.669 126.298 109.506C126.241 109.342 126.151 109.192 126.032 109.066C125.522 108.572 124.863 108.26 124.158 108.177C122.413 107.806 120.595 108.022 118.986 108.791C117.128 109.535 115.188 109.923 113.378 110.86C111.707 111.569 110.236 112.679 109.096 114.092C109.006 114.249 108.978 114.433 109.017 114.609C109.056 114.786 109.159 114.941 109.306 115.046C109.547 115.127 109.808 115.127 110.049 115.046C111.334 114.804 112.663 115.028 113.799 115.676C114.409 116.104 115.046 116.492 115.706 116.84L115.98 116.969Z" fill="#FFCCB3"/>
<path d="M251.089 277.644H183.507C182.681 277.676 181.859 277.514 181.106 277.171C180.354 276.829 179.692 276.315 179.174 275.671C178.654 275.027 178.294 274.271 178.12 273.462C177.945 272.654 177.962 271.817 178.169 271.016L188.556 217.614C188.956 215.789 189.95 214.148 191.382 212.949C192.815 211.75 194.604 211.059 196.471 210.986H264.053C264.879 210.954 265.701 211.116 266.454 211.459C267.207 211.801 267.868 212.315 268.387 212.959C268.906 213.603 269.266 214.359 269.441 215.167C269.615 215.975 269.599 216.813 269.391 217.614L259.004 271.016C258.604 272.841 257.61 274.482 256.178 275.681C254.745 276.88 252.956 277.57 251.089 277.644Z" fill="#59C3FF"/>
<path d="M204.733 225.43L249.732 225.438C250.056 225.424 250.377 225.485 250.672 225.616C250.968 225.747 251.228 225.945 251.435 226.193C251.641 226.442 251.786 226.736 251.861 227.049C251.935 227.364 251.935 227.691 251.861 228.006L251.245 231.374C251.142 231.864 250.927 232.323 250.617 232.715C250.307 233.109 249.91 233.424 249.457 233.638L224.804 245.503C224.422 245.705 223.997 245.809 223.566 245.806C223.135 245.804 222.71 245.695 222.332 245.488L202.05 233.264C201.68 233.032 201.391 232.691 201.223 232.288C201.055 231.884 201.017 231.439 201.114 231.013L201.666 227.996C201.816 227.287 202.2 226.648 202.756 226.183C203.312 225.718 204.008 225.453 204.733 225.43Z" fill="white"/>
<path d="M202.5 237.697L221.902 249.868C222.166 250.016 222.463 250.094 222.765 250.094C223.068 250.094 223.365 250.016 223.629 249.868L247.48 237.706C248.763 237.052 250.056 237.881 249.814 239.204L246.268 258.591C245.998 259.865 245.308 261.012 244.309 261.848C243.311 262.684 242.06 263.161 240.758 263.202L199.898 263.194C199.317 263.219 198.74 263.11 198.209 262.874C197.679 262.639 197.21 262.284 196.84 261.838C196.469 261.39 196.207 260.864 196.075 260.299C195.942 259.734 195.941 259.146 196.074 258.581L199.619 239.194C199.674 238.886 199.8 238.594 199.986 238.341C200.172 238.088 200.413 237.882 200.691 237.738C200.97 237.593 201.277 237.514 201.591 237.507C201.905 237.499 202.216 237.564 202.5 237.697Z" fill="white"/>
<path d="M266.388 224.974C274.113 224.974 280.375 218.712 280.375 210.987C280.375 203.262 274.113 197 266.388 197C258.663 197 252.401 203.262 252.401 210.987C252.401 218.712 258.663 224.974 266.388 224.974Z" fill="#FF967C"/>
<defs>
<linearGradient id="paint0_linear_37_1919" x1="165.279" y1="192.307" x2="165.279" y2="256.305" gradientUnits="userSpaceOnUse">
<stop stop-color="#D0DDF8"/>
<stop offset="1" stop-color="#B0BCD2"/>
</linearGradient>
<linearGradient id="paint1_linear_37_1919" x1="165.213" y1="80.7139" x2="165.213" y2="192.307" gradientUnits="userSpaceOnUse">
<stop stop-color="#D1DEF9"/>
<stop offset="1" stop-color="#AEBAD0"/>
</linearGradient>
<linearGradient id="paint2_linear_37_1919" x1="165.038" y1="88.4062" x2="165.038" y2="184.457" gradientUnits="userSpaceOnUse">
<stop stop-color="#8FC9F3"/>
<stop offset="1" stop-color="#009EF7"/>
</linearGradient>
<linearGradient id="paint3_linear_37_1919" x1="165.274" y1="64.416" x2="165.274" y2="184.437" gradientUnits="userSpaceOnUse">
<stop stop-color="#DBEEFB"/>
<stop offset="1" stop-color="#8CC8F2"/>
</linearGradient>
<linearGradient id="paint4_linear_37_1919" x1="314" y1="239.5" x2="173.3" y2="145.622" gradientUnits="userSpaceOnUse">
<stop/>
<stop offset="1" stop-opacity="0"/>
</linearGradient>
</defs>
</svg>
