<svg xmlns="http://www.w3.org/2000/svg" version="1.1" viewBox="-5.0 -10.0 110.0 135.0" fill="white">
<g><path d="M47.232,14.973v2.719c0,1.387-1.121,2.504-2.508,2.504H25.092c-0.311,0-0.611-0.057-0.887-0.164   c-0.947-0.354-1.621-1.266-1.621-2.34v-2.719c0-1.387,1.123-2.508,2.508-2.508h1.723v-2.189c0-1.385,1.121-2.508,2.508-2.508H40.5   c0.852,0,1.604,0.426,2.051,1.076c0.285,0.404,0.453,0.898,0.453,1.432v2.189h1.721C46.111,12.465,47.232,13.586,47.232,14.973z"/><path d="M50.217,78.049l-2.781,4.822H13.082c-1.301,0-2.484-0.512-3.363-1.342c-0.959-0.898-1.555-2.172-1.555-3.578V18.627   c0-2.699,2.203-4.916,4.918-4.916h6.441v0.012c-0.082,0.412-0.145,0.826-0.145,1.254v2.719c0,0.289,0.031,0.576,0.082,0.85   l-6.379-0.016l-0.098,59.422c0,0.047,0.031,0.098,0.098,0.098H50.217z"/><path d="M61.654,18.631L61.65,58.244l-4.82,8.352l0.004-47.965l-5.672-0.012h-0.809c0.045-0.305,0.092-0.611,0.092-0.928v-2.719   c0-0.436-0.064-0.852-0.154-1.258h6.449c1.729,0,3.248,0.896,4.125,2.248C61.363,16.73,61.654,17.648,61.654,18.631z"/><g><polygon points="52.77,33.625 52.77,33.625 33.465,33.625 33.465,33.625 33.465,28.424 33.465,28.424 52.77,28.424 52.77,28.424       "/><path d="M28.15,25.266h-9.316c-0.607,0-1.102,0.49-1.102,1.104v9.314c0,0.607,0.494,1.104,1.102,1.104h9.316    c0.611,0,1.102-0.496,1.102-1.104v-9.314C29.252,25.756,28.762,25.266,28.15,25.266z M28.617,28.713l-5.492,5.49l-0.879,0.885    l-0.117,0.117c-0.213,0.213-0.561,0.213-0.773,0l-2.988-2.986c-0.213-0.215-0.213-0.566,0-0.779l0.998-0.998    c0.213-0.213,0.563-0.213,0.777,0l1.818,1.824l5.107-5.104c0.213-0.215,0.561-0.215,0.773,0l0.775,0.775    C28.832,28.152,28.832,28.498,28.617,28.713z"/></g><g><polygon points="52.77,51.854 52.77,51.854 33.465,51.854 33.465,51.854 33.465,46.652 33.465,46.652 52.77,46.652 52.77,46.652       "/><path d="M28.15,43.492h-9.316c-0.607,0-1.102,0.496-1.102,1.104v9.314c0,0.607,0.494,1.102,1.102,1.102h9.316    c0.611,0,1.102-0.494,1.102-1.102v-9.314C29.252,43.988,28.762,43.492,28.15,43.492z M28.617,46.943l-6.488,6.488    c-0.213,0.213-0.561,0.213-0.773,0l-2.988-2.986c-0.213-0.215-0.213-0.563,0-0.775l0.998-1.002c0.213-0.213,0.563-0.213,0.777,0    l1.818,1.822l5.107-5.102c0.213-0.213,0.561-0.213,0.773,0l0.775,0.775C28.832,46.379,28.832,46.729,28.617,46.943z"/></g><g><polygon points="52.77,70.082 52.77,70.082 33.465,70.082 33.465,70.082 33.465,64.881 33.465,64.881 52.77,64.881 52.77,64.881       "/><path d="M28.15,61.719h-9.316c-0.607,0-1.102,0.494-1.102,1.102v9.316c0,0.611,0.494,1.102,1.102,1.102h9.316    c0.611,0,1.102-0.49,1.102-1.102V62.82C29.252,62.213,28.762,61.719,28.15,61.719z M28.617,65.17l-5.492,5.49l-0.879,0.885    l-0.117,0.113c-0.213,0.215-0.561,0.215-0.773,0l-2.988-2.988c-0.213-0.213-0.213-0.561,0-0.775l0.998-0.996    c0.213-0.215,0.563-0.215,0.777,0l1.818,1.818l5.107-5.102c0.213-0.215,0.561-0.215,0.773,0l0.775,0.779    C28.832,64.609,28.832,64.955,28.617,65.17z"/></g></g><path d="M91.322,87.213L72.98,55.441c-0.646-1.121-1.73-1.787-2.902-1.787c-1.168,0-2.25,0.666-2.896,1.787L48.838,87.213  c-0.646,1.117-0.686,2.395-0.102,3.402c0.584,1.014,1.707,1.617,3.002,1.617h36.684c1.293,0,2.414-0.604,3.002-1.617  C92.008,89.607,91.969,88.33,91.322,87.213z M54.15,87.492l15.928-27.588l15.928,27.588H54.15z"/><path d="M71.664,79.336c0,0.73-0.592,1.32-1.32,1.32h-0.512c-0.729,0-1.318-0.59-1.318-1.32V68.801c0-0.73,0.59-1.32,1.318-1.32  h0.512c0.729,0,1.32,0.59,1.32,1.32V79.336z"/>
</svg>