<svg xmlns="http://www.w3.org/2000/svg" version="1.1" viewBox="-5.0 -10.0 110.0 135.0" fill="white">
 <path d="m98.605 37.121c-1.2969-4.8359-6-7.9375-10.957-7.2266-4.957 0.71094-8.5977 5.0156-8.4805 10.02l-14.621 2.3438v-10.707c0-0.37891-0.16016-0.73828-0.4375-0.99219-0.28125-0.25-0.65234-0.375-1.0312-0.33594-2.3047 0.23828-4.9727-1.1719-7.2891-3.0234l5.0195-12.23c2.1992 0.40234 4.4492-0.34375 5.9688-1.9883 1.5156-1.6406 2.082-3.9453 1.5039-6.1055-0.55078-2.0586-2.0781-3.7188-4.0859-4.4414-2.0078-0.72266-4.2422-0.41797-5.9805 0.82031-1.7383 1.2383-2.7617 3.2461-2.7344 5.3828 0.023437 2.1328 1.0938 4.1211 2.8594 5.3164l-4.6562 11.348c-0.36719-0.37109-0.71875-0.74609-1.0391-1.1133v0.003906c-0.25391-0.28906-0.61719-0.45312-1-0.45312h-10.434c-0.38281 0-0.75 0.16406-1 0.45312-0.078126 0.089844-0.16016 0.17969-0.24219 0.26953l-2.25-6.3008c3.0117-1.7227 4.4883-5.2539 3.5938-8.6094-0.77344-2.9414-3.2109-5.1523-6.2188-5.6289s-6.0117 0.86719-7.6562 3.4297-1.6211 5.8516 0.0625 8.3867c1.6836 2.5391 4.707 3.8398 7.707 3.3164l2.668 7.4727c-2.4766 2.1719-5.5156 3.9688-8.0977 3.7031v-0.003907c-0.375-0.035156-0.75 0.085938-1.0312 0.33984-0.27734 0.25-0.4375 0.60938-0.4375 0.98828v1.8125l-11.367-7.2578-0.003906 0.003906c0.66406-1.5781 0.78125-3.332 0.33594-4.9844-0.80859-3.0273-3.3633-5.2695-6.4688-5.6758-3.1094-0.41016-6.1562 1.0938-7.7188 3.8086-1.3828 2.3945-1.3828 5.3438-0.003907 7.7383 1.3789 2.3945 3.9297 3.875 6.6953 3.8828 0.67969-0.003906 1.3594-0.09375 2.0156-0.26953 1.4258-0.37891 2.7148-1.1602 3.707-2.25l12.805 8.1719v12.738l-0.046876-0.21875-8.0312 1.7539 0.003907-0.003906c-1.7578-4.8086-6.8984-7.4844-11.844-6.1562-3.707 0.99219-6.5039 4.0391-7.1797 7.8125-0.67188 3.7773 0.89844 7.6055 4.0312 9.8164 3.1367 2.2109 7.2656 2.4102 10.598 0.51172 3.3359-1.8984 5.2695-5.5547 4.9609-9.3789l7.5391-1.6484c0.31641 4.8945 3.2695 7.7305 7.8594 10.914l-7.6875 14.121c-3.4336-1.0898-7.125 0.60938-8.5391 3.918-1.4102 3.3125-0.074219 7.1523 3.0859 8.875 3.1562 1.7188 7.1094 0.76172 9.125-2.2188 2.0195-2.9805 1.4414-7.0078-1.332-9.3008l7.5703-13.895c0.41016 0.27344 0.83203 0.54688 1.2617 0.82812 1.7891 1.1758 3.8203 2.5078 5.9766 4.043v0.003906c0.46484 0.32812 1.0859 0.32812 1.5508 0 1.6836-1.1992 3.2812-2.2695 4.7578-3.2422l4.8594 13.496v-0.003907c-4.6172 2.4062-6.5781 7.9766-4.4883 12.746 2.0898 4.7656 7.5156 7.1016 12.414 5.3398 4.8984-1.7656 7.5898-7.0195 6.1641-12.027-1.4297-5.0039-6.4922-8.0469-11.582-6.9609l-5.082-14.102c3.6367-2.3984 6.5273-4.4219 8.3164-6.9258l12.02 6.9414v-0.003906c-1.4531 3.918 0.33594 8.293 4.1172 10.07 3.7812 1.7734 8.293 0.35547 10.379-3.2656 2.082-3.6211 1.043-8.2344-2.3906-10.613-3.4375-2.3789-8.1211-1.7266-10.777 1.5l-12.086-6.9805c0.49609-1.3203 0.73828-2.7227 0.71875-4.1328v-6.9023l0.15234 0.94922 14.898-2.3867c1.2578 4.1641 5.0938 7.0156 9.4414 7.0273 0.87109-0.003907 1.7344-0.11719 2.5742-0.34375 5.2734-1.4141 8.4023-6.832 6.9922-12.105zm-63.383-20.793c-2.2891 0.61328-4.6953-0.47656-5.7422-2.6016-1.0508-2.125-0.44922-4.6953 1.4297-6.1406 1.8828-1.4414 4.5195-1.3555 6.3008 0.20703 1.7852 1.5625 2.2148 4.168 1.0273 6.2227-0.65625 1.1406-1.7422 1.9766-3.0156 2.3125zm-22.41 44.844c-2.8203 0.75781-5.8203-0.26172-7.5977-2.5781s-1.9844-5.4766-0.52344-8.0078c1.4609-2.5273 4.3008-3.9297 7.1953-3.5469 2.8945 0.37891 5.2773 2.4688 6.0312 5.2891 1.0273 3.8516-1.2578 7.8086-5.1055 8.8438zm46.715 19.914c0.61328-0.16406 1.2461-0.24609 1.8789-0.24609 3.8164-0.003906 6.9805 2.957 7.2344 6.7617 0.25 3.8086-2.4922 7.1602-6.2773 7.6602-3.7812 0.50391-7.3047-2.0156-8.0547-5.7578-0.75-3.7422 1.5312-7.4219 5.2188-8.418zm-3.5859-40.988-10.457 10.457c-0.52344 0.51953-1.3672 0.51953-1.8867 0l-5.2695-5.2695c-0.26562-0.24609-0.42188-0.58984-0.42578-0.95312-0.007813-0.36328 0.13281-0.71094 0.38672-0.96875 0.25781-0.25781 0.60547-0.39844 0.96875-0.39062 0.36328 0.007813 0.70703 0.16016 0.95313 0.42578l4.3281 4.3281 9.5156-9.5156c0.51953-0.51953 1.3633-0.51953 1.8867 0 0.51953 0.51953 0.51953 1.3633 0 1.8867zm39.367 3.1953c-1.7227 2.9844-5.3125 4.3359-8.5742 3.2266-3.2656-1.1055-5.2891-4.3633-4.8398-7.7812 0.44922-3.4141 3.25-6.0391 6.6875-6.2656 3.4375-0.22266 6.5547 2.0117 7.4492 5.3398 0.5 1.8477 0.24219 3.8203-0.72266 5.4805z"/>
</svg>