<svg xmlns="http://www.w3.org/2000/svg" version="1.1" viewBox="-5.0 -10.0 120 135.0" fill="white">
 <path d="m96.672 37.34v-21.762c0-3.5-3.9102-6.5508-11.309-8.8008-6.875-2.0859-15.965-3.2383-25.594-3.2383-9.6289 0-18.719 1.1484-25.59 3.2383-7.3984 2.25-11.309 5.2891-11.309 8.8008v0.011719 31.949c-5.0508 3.8008-11.148 5.8398-18.129 6.0703-0.58984 0.019531-1.0703 0.48047-1.1211 1.0703-0.97266 11.672 0.50781 20.809 4.5273 27.91 3.2812 5.8008 8.1602 10.172 15.352 13.75 0.16016 0.078125 0.33984 0.12109 0.51953 0.12109 0.17969 0 0.35156-0.039063 0.51953-0.12109 3.9102-1.9414 7.1289-4.1211 9.7891-6.6289 6.8398 2.0586 15.828 3.1797 25.441 3.1797 9.6602 0 18.75-1.1484 25.609-3.2383 7.3906-2.25 11.289-5.2891 11.289-8.8008zm-2.3203 0c0 4.6016-14.199 9.7109-34.578 9.7109-20.379 0-34.578-5.1211-34.578-9.7109l-0.003906-17.359c1.8906 1.6719 4.9102 3.1484 8.9883 4.3906 6.8711 2.0898 15.961 3.2383 25.59 3.2383 9.6289 0 18.719-1.1484 25.59-3.2383 4.0781-1.2383 7.1016-2.7305 8.9883-4.3906zm-59.5-28.34c6.6602-2.0312 15.512-3.1406 24.922-3.1406 9.4062 0 18.258 1.1211 24.906 3.1406 6.0508 1.8398 9.6719 4.3008 9.6719 6.5703 0 2.2695-3.6094 4.7305-9.6719 6.5703-6.6602 2.0312-15.512 3.1406-24.922 3.1406-9.4102 0-18.262-1.1211-24.922-3.1406-6.0508-1.8398-9.6602-4.3008-9.6719-6.5703 0.027344-2.2695 3.6367-4.7188 9.6875-6.5703zm-10.82 85c-10.07-5.1289-19.902-13.82-18.18-38.121 6.9297-0.39844 13.039-2.5195 18.18-6.3086 5.1406 3.7891 11.238 5.9102 18.18 6.3086 1.7109 24.301-8.1211 32.992-18.18 38.121zm35.738-3.4414c-8.8516 0-17.141-0.96875-23.602-2.75 1.4297-1.6016 2.6719-3.3398 3.7305-5.2188 2.0508-3.6289 3.4414-7.7891 4.1914-12.551 4.8594 0.71094 10.262 1.0898 15.68 1.0898 9.6602 0 18.75-1.1484 25.609-3.2383 4.0703-1.2383 7.0781-2.7188 8.9688-4.3906v17.34c0.003906 4.6016-14.199 9.7188-34.578 9.7188zm0-21.75c-5.3281 0-10.621-0.37109-15.379-1.0703 0.42969-3.9609 0.44141-8.3008 0.050781-13.07-0.050781-0.58984-0.53125-1.0508-1.1211-1.0703-6.9805-0.23047-13.078-2.2695-18.129-6.0703v-5.7812c1.8906 1.6719 4.8984 3.1484 8.9688 4.3906 6.8594 2.0898 15.949 3.2383 25.609 3.2383 9.6602 0 18.75-1.1484 25.609-3.2383 4.0703-1.2383 7.0781-2.7188 8.9688-4.3906v17.34c0.003906 4.6055-14.199 9.7227-34.578 9.7227zm-35.738-8.1289c-3.7188 0-6.7383 3.0195-6.7383 6.7383 0 3.3203 2.4102 6.0898 5.5781 6.6406v7.5c0 0.64062 0.51953 1.1602 1.1602 1.1602s1.1602-0.51953 1.1602-1.1602v-7.5c3.1719-0.55078 5.5781-3.3203 5.5781-6.6406 0-3.707-3.0312-6.7383-6.7383-6.7383zm0 11.16c-2.4414 0-4.4219-1.9805-4.4219-4.4219 0-2.4414 1.9805-4.4219 4.4219-4.4219s4.4219 1.9805 4.4219 4.4219c-0.011719 2.4414-1.9922 4.4219-4.4219 4.4219z"/></svg>