<svg xmlns="http://www.w3.org/2000/svg" version="1.1" viewBox="-5.0 -10.0 110.0 135.0" fill="white">
 <path d="m18.277 41.395h0.74609c1.0117 0 1.8516 0.55859 2.2383 1.4961s0.19141 1.9219-0.52344 2.6406l-0.53125 0.53125c-0.96875 0.96875-0.96875 2.543 0 3.5117l3.3164 3.3164c0.96875 0.96875 2.543 0.96875 3.5117 0l0.53125-0.53125c0.71484-0.71484 1.7031-0.91406 2.6406-0.52734s1.4961 1.2227 1.4961 2.2383v0.74609c0 1.3711 1.1133 2.4844 2.4844 2.4844h4.6914c1.3711 0 2.4844-1.1133 2.4844-2.4844v-0.74609c0-1.0117 0.55859-1.8516 1.4961-2.2383s1.9219-0.19141 2.6406 0.52344l0.53125 0.53125c0.96875 0.96875 2.543 0.96875 3.5117 0l3.3164-3.3164c0.96875-0.96875 0.96875-2.543 0-3.5117l-0.53125-0.53125c-0.71484-0.71484-0.91406-1.7031-0.52734-2.6406s1.2227-1.4961 2.2383-1.4961h0.74609c1.3711 0 2.4844-1.1133 2.4844-2.4844v-4.6914c0-1.3711-1.1133-2.4844-2.4844-2.4844h-0.74609c-1.0117 0-1.8516-0.55859-2.2383-1.4961s-0.19141-1.9219 0.52344-2.6406l0.53125-0.53125c0.46875-0.46875 0.72656-1.0938 0.72656-1.7578 0-0.66406-0.25781-1.2891-0.72656-1.7578l-3.3164-3.3164c-0.46875-0.46875-1.0938-0.72656-1.7578-0.72656s-1.2891 0.25781-1.7578 0.72656l-0.53125 0.53125c-0.71484 0.71484-1.7031 0.91406-2.6406 0.52734-0.9375-0.38672-1.4961-1.2227-1.4961-2.2383v-0.74609c0-1.3711-1.1133-2.4844-2.4844-2.4844h-4.6914c-1.3711 0-2.4844 1.1133-2.4844 2.4844v0.74609c0 1.0117-0.55859 1.8516-1.4961 2.2383-0.9375 0.38672-1.9219 0.19141-2.6406-0.52734l-0.53125-0.53125c-0.46875-0.46875-1.0938-0.72656-1.7578-0.72656-0.66406 0-1.2891 0.25781-1.7578 0.72656l-3.3164 3.3164c-0.96875 0.96875-0.96875 2.543 0 3.5117l0.53125 0.53125c0.71484 0.71484 0.91406 1.7031 0.52734 2.6406-0.38672 0.9375-1.2227 1.4961-2.2383 1.4961l-0.73828 0.007813c-1.3711 0-2.4844 1.1133-2.4844 2.4844v4.6914c0 1.3711 1.1133 2.4844 2.4844 2.4844zm0.21875-6.957h0.53125c2.1133 0 3.9258-1.2109 4.7344-3.1641 0.80859-1.9492 0.38281-4.0898-1.1094-5.5859l-0.375-0.375 3.0078-3.0078 0.375 0.375c1.4922 1.4922 3.6328 1.918 5.5859 1.1094 1.9492-0.80859 3.1641-2.6211 3.1641-4.7344l-0.007812-0.52344h4.2539v0.53125c0 2.1133 1.2109 3.9258 3.1641 4.7344 1.9492 0.80859 4.0898 0.38281 5.582-1.1094l0.375-0.375 3.0078 3.0078-0.375 0.375c-1.4922 1.4922-1.918 3.6328-1.1094 5.5859 0.80859 1.9492 2.6211 3.1641 4.7344 3.1641h0.53125v4.2539h-0.53125c-2.1133 0-3.9258 1.2109-4.7344 3.1641-0.80859 1.9492-0.38281 4.0898 1.1094 5.5859l0.375 0.375-3.0078 3.0078-0.375-0.375c-1.4922-1.4922-3.6328-1.918-5.5859-1.1094-1.9492 0.80859-3.1641 2.6211-3.1641 4.7344v0.53125h-4.2539v-0.53125c0-2.1133-1.2109-3.9258-3.1641-4.7344-1.9492-0.80859-4.0898-0.38281-5.582 1.1094l-0.375 0.375-3.0078-3.0078 0.375-0.375c1.4922-1.4922 1.918-3.6328 1.1094-5.5859-0.80859-1.9492-2.6211-3.1641-4.7344-3.1641h-0.53125zm18.031 14.242c3.2383 0 6.2773-1.2617 8.5664-3.5469 2.2891-2.2891 3.5469-5.332 3.5469-8.5664 0-3.2383-1.2617-6.2773-3.5469-8.5664-2.2891-2.2891-5.332-3.5469-8.5664-3.5469s-6.2773 1.2617-8.5664 3.5469c-2.2891 2.2891-3.5469 5.332-3.5469 8.5664 0 3.2383 1.2617 6.2773 3.5469 8.5664 2.2891 2.2852 5.332 3.5469 8.5664 3.5469zm-6.6562-18.77c1.7773-1.7773 4.1406-2.7578 6.6562-2.7578s4.8789 0.98047 6.6562 2.7578 2.7578 4.1406 2.7578 6.6562-0.98047 4.8789-2.7578 6.6562-4.1406 2.7578-6.6562 2.7578-4.8789-0.98047-6.6562-2.7578-2.7578-4.1406-2.7578-6.6562c0.003907-2.5156 0.98047-4.8789 2.7578-6.6562zm4.5703 9.2188 1.5625-5.8242c0.19141-0.72266 0.93359-1.1484 1.6562-0.95703s1.1484 0.93359 0.95703 1.6562l-1.5625 5.8242c-0.16406 0.60547-0.70703 1.0039-1.3047 1.0039-0.11719 0-0.23438-0.015625-0.35156-0.046875-0.72266-0.19531-1.1484-0.9375-0.95703-1.6562zm-2.7188 1.4062-3.5547-2.9297c-0.3125-0.25781-0.49219-0.64062-0.49219-1.043s0.17969-0.78516 0.49219-1.043l3.5547-2.9297c0.57812-0.47266 1.4258-0.39062 1.9023 0.18359 0.47266 0.57812 0.39062 1.4258-0.18359 1.9023l-2.2891 1.8828 2.2891 1.8828c0.57812 0.47266 0.65625 1.3242 0.18359 1.9023-0.26562 0.32422-0.65234 0.49219-1.043 0.49219-0.30469 0.007812-0.60938-0.09375-0.85938-0.30078zm7.8945-2.0859 2.2891-1.8828-2.2891-1.8828c-0.57813-0.47266-0.65625-1.3242-0.18359-1.9023s1.3242-0.65625 1.9023-0.18359l3.5547 2.9297c0.3125 0.25781 0.49219 0.64062 0.49219 1.043 0 0.40234-0.17969 0.78516-0.49219 1.043l-3.5547 2.9297c-0.25391 0.20703-0.55469 0.30859-0.85938 0.30859-0.39062 0-0.77734-0.16797-1.043-0.49219-0.47656-0.58203-0.39453-1.4336 0.18359-1.9102zm55.477 43.039-23.523-39.477c-1.0781-1.8086-2.9844-2.8906-5.0938-2.8906-1.0547 0-2.0547 0.26953-2.9258 0.76172v-3.3203c0-7.1875-2.8203-13.965-7.9375-19.082-5.1172-5.1172-11.895-7.9375-19.082-7.9375s-13.965 2.8203-19.082 7.9375c-5.1211 5.1172-7.9414 11.895-7.9414 19.086v25.395c-3.0078 0.015624-5.4531 2.4688-5.4531 5.4844v4.8516c0 0.74609 0.60547 1.3516 1.3516 1.3516h37.121l-4.6719 7.8438c-1.1094 1.8594-1.1328 4.0938-0.070313 5.9688 1.0664 1.875 2.9961 2.9961 5.1641 2.9961h47.051c2.168 0 4.0977-1.1211 5.1641-2.9961 1.0625-1.8828 1.0391-4.1133-0.070312-5.9727zm-58.566-69.238c13.406 0 24.316 10.906 24.316 24.316v6.3438l-11.352 19.047h-37.281v-25.391c0-13.41 10.91-24.316 24.316-24.316zm-29.77 58.691v-3.5c0-1.5352 1.2461-2.7812 2.7812-2.7812h38.344l-3.7422 6.2812zm86.055 15.18c-0.57812 1.0195-1.6328 1.6289-2.8125 1.6289h-47.051c-1.1797 0-2.2344-0.60938-2.8125-1.6289-0.57812-1.0195-0.56641-2.2344 0.039062-3.25l23.523-39.477c0.58594-0.98438 1.6211-1.5703 2.7734-1.5703 1.1484 0 2.1875 0.58594 2.7734 1.5703l23.523 39.477c0.60547 1.0156 0.62109 2.2305 0.042969 3.25zm-25.148-41.785c-0.24609-0.41406-0.70312-0.67188-1.1875-0.67188-0.48437 0-0.94141 0.25781-1.1875 0.67188v0.003906l-23.527 39.473c-0.26172 0.44141-0.27344 0.96094-0.023438 1.3984 0.24609 0.4375 0.69922 0.69922 1.2148 0.69922h47.051c0.51172 0 0.96484-0.26172 1.2109-0.69531 0.24609-0.4375 0.23828-0.95703-0.023438-1.3984zm-22.398 38.871 21.207-35.586 21.207 35.586zm16.59-25.766c0 0.035156 0 0.070313 0.003906 0.10547l1.1914 15.16c0.03125 1.0625 0.83984 1.9297 1.875 2.0625-1.5195 0.61719-2.5977 2.1094-2.5977 3.8477 0 2.2891 1.8594 4.1484 4.1484 4.1484 2.2891 0 4.1484-1.8594 4.1484-4.1484 0-1.7383-1.0781-3.2305-2.5977-3.8477 1.0352-0.13281 1.8438-1 1.875-2.0625l1.1914-15.16c0.003906-0.035156 0.003906-0.070313 0.003906-0.10547 0-1.4336-1.168-2.6016-2.6016-2.6016h-4.0352c-1.4414 0-2.6055 1.1641-2.6055 2.6016zm4.6172 22.621c-0.79688 0-1.4453-0.64844-1.4453-1.4453 0-0.79688 0.64844-1.4453 1.4453-1.4453s1.4453 0.64844 1.4453 1.4453c0.003906 0.79687-0.64844 1.4453-1.4453 1.4453zm1.9062-22.523-1.1406 14.543h-1.5273l-1.1406-14.543z"/>
</svg>